<svg width="235" height="20" viewBox="0 0 235 20" fill="none" xmlns="http://www.w3.org/2000/svg">
<path fill-rule="evenodd" clip-rule="evenodd" d="M172.616 0.214912C170.969 0.334311 169.289 0.43815 168.884 0.445591C168.439 0.453709 168.188 0.526092 168.252 0.62824C168.398 0.861963 170.827 0.837272 176.466 0.544357C182.43 0.234868 182.154 0.261927 180.83 0.114794C179.177 -0.0687011 175.99 -0.0299727 172.616 0.214912ZM118.026 0.741212C115.626 0.773006 101.239 0.944663 86.0538 1.12275C61.4704 1.41126 58.4127 1.47587 58.1476 1.71297C57.8866 1.94653 57.5054 1.96006 55.0594 1.82273C48.5739 1.45895 30.04 1.97054 24.8469 2.65666C22.6014 2.95346 21.0688 3.07641 14.237 3.50818C12.7311 3.60339 11.1909 3.75847 10.8144 3.85284C10.438 3.94738 8.08922 4.06306 5.59503 4.1099C3.10083 4.15675 0.792828 4.23623 0.466145 4.28663C-0.73295 4.47148 0.428325 4.69776 3.40886 4.86012C8.06765 5.1138 8.4657 5.16757 8.76073 5.58378C9.15141 6.13494 9.07457 6.3301 8.41864 6.4517C7.78444 6.56924 7.64292 6.7825 8.08716 6.95094C8.62707 7.15574 8.11437 7.39302 7.1321 7.39302C6.01925 7.39302 3.29558 7.76356 3.72716 7.85624C3.87621 7.8882 4.43546 8.43953 4.96972 9.08134L5.94122 10.2484L5.21187 10.3005C4.60693 10.3438 4.47345 10.417 4.42827 10.7306C4.3499 11.2763 5.11843 11.9028 6.12946 12.117C6.59767 12.2163 7.92049 12.3051 9.06876 12.3144C11.7053 12.3357 12.4829 12.5106 10.9 12.7262C9.82702 12.8723 9.87545 12.8816 12.269 12.9892C13.6338 13.0504 15.0415 13.1101 15.3972 13.1218L16.0441 13.1431L15.6767 13.6342C15.3966 14.0088 15.121 14.1514 14.5164 14.2346C13.0194 14.4411 12.6113 14.5339 12.6113 14.668C12.6113 14.8287 14.587 14.7269 17.7451 14.4034C19.0157 14.2731 21.9035 14.1162 24.1624 14.0546C26.4983 13.991 28.3643 13.8688 28.4892 13.7712C28.7209 13.5901 32.604 13.7024 33.2322 13.9083C33.5016 13.9966 33.5207 13.9831 33.3226 13.8446C33.1008 13.6897 33.1008 13.6591 33.3226 13.5892C33.4612 13.5454 35.1916 13.4737 37.1682 13.4297C39.1447 13.3856 40.6463 13.3783 40.5052 13.4135C40.364 13.4487 37.9767 13.8253 35.2002 14.2506L30.1519 15.0239L23.8689 15.1238C18.9127 15.2024 17.5304 15.1781 17.3233 15.0083C17.1362 14.8549 16.9978 14.8444 16.8426 14.9718C16.703 15.0863 14.1961 15.1918 9.86912 15.2654C6.15359 15.3284 3.04727 15.4409 2.96598 15.5153C2.88487 15.5896 2.87203 15.7362 2.93758 15.841C3.02023 15.9731 4.03468 16.0218 6.25113 15.9998C9.29362 15.9696 17.0183 16.3249 21.4244 16.6978C28.8293 17.3246 38.1424 17.3716 56.7623 16.8764C83.5538 16.1637 96.0532 15.8515 96.8919 15.874L97.7475 15.897L97.063 16.008C95.0545 16.3333 123.997 16.6237 152.337 16.5623C171.397 16.5211 177.085 16.6232 172.188 16.919C171.059 16.9872 167.439 17.0802 164.145 17.1255C160.851 17.171 157.347 17.2872 156.359 17.3836C153.977 17.6161 154.03 17.6163 152.851 17.3765C151.737 17.1502 149.681 17.2649 149.167 17.5821C148.946 17.7188 148.338 17.7083 146.881 17.5424C145.311 17.3636 144.558 17.3575 143.279 17.513C142.39 17.6209 140.329 17.7196 138.7 17.7323C136.377 17.7502 135.996 17.7819 136.936 17.8784C140.028 18.1967 161.784 18.3472 172.188 18.1225C174.918 18.0634 178.499 18.0858 180.146 18.1718C183.602 18.3526 198.509 18.17 203.761 17.8825C205.691 17.777 208.425 17.5485 209.836 17.375C213.669 16.9038 213.923 16.8818 218.735 16.6083C221.182 16.4692 223.492 16.2819 223.869 16.1923C224.245 16.1025 225.22 15.9782 226.036 15.916C228.182 15.7519 228.422 15.4582 226.926 14.8246C226.483 14.6369 226.111 14.3457 226.025 14.1199C225.896 13.779 225.945 13.7186 226.457 13.5914C227.089 13.4341 227.187 13.2439 226.756 13.0058C226.261 12.7321 226.848 12.5579 228.404 12.5167C232.188 12.4162 232.174 12.4192 232.972 11.5249C233.776 10.6246 234.176 9.86808 234.728 8.20209C235.169 6.87331 235.09 6.44493 234.376 6.29002C233.561 6.11312 231.825 6.37069 230.818 6.81767C229.375 7.45796 225.247 7.90393 223.612 7.59596L222.842 7.45086L223.954 7.27447L225.067 7.0979L224.024 7.07626C223.451 7.06442 222.052 7.0054 220.915 6.94502L218.848 6.83509L219.201 6.36393C219.444 6.03922 219.759 5.86299 220.214 5.79721C220.577 5.74478 221.182 5.65701 221.559 5.60238C221.935 5.54776 222.243 5.42836 222.243 5.33703C222.243 5.15895 221.122 5.21797 216.938 5.61659C215.573 5.74647 212.686 5.90291 210.521 5.9643C208.224 6.02924 206.494 6.14898 206.366 6.25163C206.15 6.42582 202.629 6.33247 201.708 6.128C201.349 6.04852 201.335 6.05782 201.622 6.18551C201.921 6.31843 201.888 6.35023 201.366 6.43428C201.036 6.48721 199.226 6.57837 197.344 6.63688C195.462 6.69523 193.19 6.79873 192.296 6.86689C191.402 6.93504 190.632 6.93961 190.585 6.87703C190.537 6.81446 190.268 6.72094 189.986 6.66936C189.703 6.61777 189.107 6.44612 188.66 6.28799C187.989 6.05038 187.647 6.0289 186.692 6.1642L185.536 6.32807L186.092 6.55943C186.398 6.68661 186.649 6.85014 186.649 6.9227C186.649 6.99542 185.499 7.05478 184.095 7.05478C181.62 7.05478 181.525 7.04159 181.032 6.63198C180.753 6.39944 180.304 6.20648 180.035 6.20326C179.767 6.19988 179.354 6.08843 179.119 5.9555C178.884 5.82257 178.369 5.71112 177.976 5.70774C177.177 5.70115 176.71 5.36325 176.838 4.88244C176.888 4.69438 176.816 4.52458 176.663 4.46641C175.915 4.18296 173.334 4.00505 170.54 4.04428C168.549 4.07236 167.108 4.01587 166.609 3.89022C165.904 3.71264 159.18 2.72126 156.102 2.34108C155.227 2.23301 156.541 2.18211 160.979 2.15201C164.321 2.12951 166.939 2.08351 166.798 2.04986C166.657 2.01603 162.306 1.79669 157.129 1.56212C151.952 1.32772 146.023 1.05544 143.952 0.957008C139.955 0.766918 125.306 0.645152 118.026 0.741212ZM215.148 1.29609C212.094 1.49396 210.436 1.53455 209.843 1.42615C209.369 1.33939 208.018 1.3103 206.842 1.36154C194.889 1.88175 191.506 1.98424 185.878 1.99709C179.217 2.01214 177.531 2.08131 177.927 2.32332C178.523 2.68676 205.698 2.33195 216.767 1.81614C220.774 1.62943 221.848 1.52677 221.978 1.31808C222.062 1.18447 220.608 0.950413 219.933 0.988972C219.745 0.999627 217.592 1.1378 215.148 1.29609ZM170.049 2.12664L169.45 2.24756L170.049 2.35816C171.19 2.56906 174.324 2.69708 175.308 2.57311C176.195 2.46116 176.252 2.43105 175.867 2.27682C175.353 2.07066 170.896 1.95549 170.049 2.12664ZM101.341 2.37152C95.7881 2.4615 90.128 2.5217 88.7633 2.5053C87.3985 2.48906 85.5671 2.55045 84.6937 2.64161C83.6804 2.74731 82.751 2.74934 82.1268 2.64685C81.5063 2.54521 80.1146 2.54656 78.3245 2.65057C76.7715 2.74088 72.4591 2.86095 68.7413 2.91744C65.0235 2.97393 61.7122 3.07844 61.3828 3.14981C59.9771 3.45423 66.4475 3.54741 83.1161 3.46268C92.7634 3.41381 105.893 3.4341 112.293 3.50801L123.93 3.64246L128.294 3.06593C130.694 2.74883 132.773 2.48145 132.914 2.47164C133.056 2.462 132.902 2.39063 132.572 2.31335C132.243 2.23606 128.752 2.25804 124.815 2.36239C119.311 2.50817 117.274 2.50513 116.002 2.34954C115.092 2.23809 113.692 2.1608 112.892 2.17771C112.092 2.19446 106.894 2.28172 101.341 2.37152ZM149 3.10127C149.985 3.35461 155.616 3.96328 155.751 3.83086C155.841 3.74376 156.264 3.6663 156.693 3.65903C158.162 3.63383 157.123 3.51477 153.169 3.25551C149.233 2.99743 148.49 2.96987 149 3.10127ZM136.209 3.38269C135.432 3.47469 134.797 3.61557 134.797 3.69573C134.797 3.77589 135.624 3.85149 136.636 3.86366C138.344 3.8843 138.402 3.89546 137.449 4.02044C136.885 4.09434 134.497 4.23877 132.144 4.34126C127.6 4.5393 124.921 4.80515 125.156 5.03499C125.37 5.24385 135.78 5.58767 138.048 5.46066C139.131 5.40011 140.517 5.2726 141.128 5.17738C141.74 5.082 143.165 4.97901 144.294 4.9484C145.424 4.91762 146.887 4.79484 147.546 4.67544L148.744 4.45829L144.123 3.82274C139.268 3.15505 138.495 3.1121 136.209 3.38269ZM213.516 3.61658C212.81 3.64195 209.19 3.7764 205.473 3.91541C201.755 4.05443 196.48 4.20968 193.75 4.26042C188.7 4.35428 183.453 4.62132 182.37 4.83948C181.847 4.94501 181.968 4.98814 183.334 5.18347C184.543 5.35631 185.609 5.36967 188.04 5.24216C189.769 5.15168 194.533 5.06526 198.628 5.05021C202.722 5.03515 206.88 4.94941 207.868 4.85978C208.857 4.77014 210.666 4.6132 211.89 4.51105C214.389 4.30253 218.64 3.73852 218.784 3.59629C218.873 3.50767 216.272 3.51765 213.516 3.61658ZM227.196 4.07405C227.155 4.11379 226.158 4.18465 224.981 4.2315C223.805 4.27818 222.651 4.38895 222.418 4.47757C222.045 4.61912 222.111 4.65294 222.971 4.75915C223.509 4.82562 224.046 4.8175 224.165 4.74122C224.285 4.66495 226.076 4.60255 228.147 4.60255C231.38 4.60255 231.912 4.56669 231.912 4.34887C231.912 4.13814 231.519 4.08724 229.592 4.04834C228.316 4.02264 227.238 4.03414 227.196 4.07405ZM217.452 4.85623C217.452 4.94924 217.606 5.02535 217.794 5.02535C217.982 5.02535 218.136 4.94924 218.136 4.85623C218.136 4.76321 217.982 4.68711 217.794 4.68711C217.606 4.68711 217.452 4.76321 217.452 4.85623ZM190.79 6.24301C190.677 6.35462 190.585 6.50683 190.585 6.58124C190.585 6.78182 191.237 6.74512 191.661 6.52087C192.023 6.32959 192.024 6.32215 191.693 6.19447C191.203 6.00522 191.021 6.01486 190.79 6.24301ZM51.7996 13.069C51.6584 13.0998 50.9844 13.2119 50.3017 13.3185C49.6191 13.4248 49.1038 13.5813 49.1567 13.6658C49.2096 13.7504 48.9211 13.8321 48.5155 13.8473C48.1099 13.8625 47.3546 13.8936 46.8369 13.9163C45.6465 13.9684 40.5146 14.767 40.3624 14.9239C40.2996 14.9883 40.98 14.9816 41.8742 14.9089C42.7683 14.8361 46.2722 14.7653 49.6605 14.7516C57.511 14.7198 58.0051 14.7044 57.8747 14.496C57.8165 14.403 57.4747 14.3269 57.1154 14.3269C56.756 14.3269 56.1855 14.2128 55.8475 14.0732C55.5097 13.9337 55.0531 13.8196 54.833 13.8196C54.6131 13.8196 54.1721 13.6293 53.8531 13.3968C53.3126 13.0025 52.6162 12.8914 51.7996 13.069ZM59.0818 17.5109C58.7705 17.6432 58.776 17.6601 59.1674 17.7675C60.4852 18.1297 66.1768 18.0599 65.1895 17.6936C64.6493 17.4932 59.4869 17.3388 59.0818 17.5109ZM109.726 17.6413C109.444 17.667 106.075 17.7822 102.24 17.8972C98.4041 18.0122 95.2662 18.1639 95.2662 18.2346C95.2662 18.5419 96.2448 18.5727 100.708 18.4059C103.315 18.3083 108.298 18.1861 111.78 18.1341C118.205 18.0382 119.737 17.9523 119.737 17.6875C119.737 17.5581 111.073 17.5182 109.726 17.6413ZM77.5544 18.8931C77.0835 18.9765 77.4841 19.0186 78.8379 19.0284C79.9202 19.0364 81.1139 18.9797 81.4903 18.9028C82.3703 18.723 78.569 18.7135 77.5544 18.8931ZM57.3869 19.4971C55.1423 19.6175 53.2715 19.7499 53.2296 19.7912C53.0322 19.9863 57.6589 20.0751 60.0993 19.9231C61.6053 19.8292 63.7038 19.6998 64.7626 19.6356C65.8215 19.5713 66.6878 19.4541 66.6878 19.3751C66.6878 19.1768 62.2768 19.2346 57.3869 19.4971Z" fill="url(#paint0_linear_53_3181)"/>
<defs>
<linearGradient id="paint0_linear_53_3181" x1="0" y1="9.99999" x2="235" y2="9.99999" gradientUnits="userSpaceOnUse">
<stop stop-color="#F50000"/>
<stop offset="1" stop-color="#8F0000" stop-opacity="0"/>
</linearGradient>
</defs>
</svg>
