<svg width="23" height="27" viewBox="0 0 23 27" fill="none" xmlns="http://www.w3.org/2000/svg">
<path d="M18.3984 14.5947C18.3984 14.7119 18.2227 18.1689 22.0312 19.9854C21.3281 22.1533 18.8672 26.958 15.9961 26.958C14.3555 26.958 13.418 25.9033 11.543 25.9033C9.60938 25.9033 8.55469 26.958 7.08984 26.958C4.27734 27.0752 1.58203 21.8018 0.820312 19.6338C0.234375 17.9932 0 16.4111 0 14.8877C0 9.67285 3.45703 7.15332 6.73828 7.09473C8.32031 7.09473 10.3125 8.20801 11.1914 8.20801C12.0117 8.20801 14.2969 6.86035 16.4062 7.03613C18.5742 7.21191 20.2148 8.03223 21.3281 9.61426C19.3945 10.8447 18.3984 12.4268 18.3984 14.5947ZM15.1172 4.98535C13.9453 6.33301 12.5391 7.09473 11.0156 6.97754C10.8984 5.39551 11.4844 3.93066 12.5391 2.75879C13.4766 1.7041 15.1172 0.825195 16.5234 0.708008C16.5234 1.35254 16.6992 3.11035 15.1172 4.98535Z" fill="black"/>
</svg>
