<svg width="146" height="38" viewBox="0 0 146 38" fill="none" xmlns="http://www.w3.org/2000/svg">
<g opacity="0.5">
<path d="M0 17.6165C0 16.3432 1.03221 15.311 2.3055 15.311C3.57879 15.311 4.61099 16.3432 4.61099 17.6165V20.3831C4.61099 21.6564 3.57879 22.6886 2.3055 22.6886C1.03221 22.6886 0 21.6564 0 20.3831V17.6165Z" fill="#D9D9D9" fill-opacity="0.25"/>
<path d="M8.29977 9.31675C8.29977 8.04346 9.33197 7.01125 10.6053 7.01125C11.8786 7.01125 12.9108 8.04346 12.9108 9.31675V28.6829C12.9108 29.9562 11.8786 30.9884 10.6053 30.9884C9.33197 30.9884 8.29977 29.9562 8.29977 28.6829V9.31675Z" fill="#D9D9D9" fill-opacity="0.25"/>
<path d="M16.5995 2.40022C16.5995 1.12693 17.6317 0.0947266 18.905 0.0947266C20.1783 0.0947266 21.2105 1.12693 21.2105 2.40022V35.5994C21.2105 36.8726 20.1783 37.9049 18.905 37.9049C17.6317 37.9049 16.5995 36.8726 16.5995 35.5994V2.40022Z" fill="#D9D9D9" fill-opacity="0.25"/>
<path d="M24.8993 13.9278C24.8993 12.6545 25.9315 11.6223 27.2048 11.6223C28.4781 11.6223 29.5103 12.6545 29.5103 13.9278V24.0719C29.5103 25.3452 28.4781 26.3774 27.2048 26.3774C25.9315 26.3774 24.8993 25.3452 24.8993 24.0719V13.9278Z" fill="#D9D9D9" fill-opacity="0.25"/>
<path d="M33.1991 9.31675C33.1991 8.04346 34.2313 7.01125 35.5046 7.01125C36.7779 7.01125 37.8101 8.04346 37.8101 9.31675V28.6829C37.8101 29.9562 36.7779 30.9884 35.5046 30.9884C34.2313 30.9884 33.1991 29.9562 33.1991 28.6829V9.31675Z" fill="#D9D9D9" fill-opacity="0.25"/>
<path d="M41.4989 18.5388C41.4989 17.2655 42.5311 16.2333 43.8044 16.2333C45.0777 16.2333 46.1099 17.2655 46.1099 18.5388V19.461C46.1099 20.7343 45.0777 21.7665 43.8044 21.7665C42.5311 21.7665 41.4989 20.7343 41.4989 19.461V18.5388Z" fill="#D9D9D9" fill-opacity="0.25"/>
<path d="M49.7987 15.7721C49.7987 14.4988 50.8309 13.4666 52.1042 13.4666C53.3775 13.4666 54.4097 14.4988 54.4097 15.7721V22.2275C54.4097 23.5008 53.3775 24.533 52.1042 24.533C50.8309 24.533 49.7987 23.5008 49.7987 22.2275V15.7721Z" fill="#D9D9D9" fill-opacity="0.25"/>
<path d="M58.0985 2.40022C58.0985 1.12693 59.1307 0.0947266 60.404 0.0947266C61.6773 0.0947266 62.7095 1.12693 62.7095 2.40022V35.5994C62.7095 36.8726 61.6773 37.9049 60.404 37.9049C59.1307 37.9049 58.0985 36.8726 58.0985 35.5994V2.40022Z" fill="#D9D9D9" fill-opacity="0.25"/>
<path d="M66.3983 10.2389C66.3983 8.96562 67.4305 7.93341 68.7038 7.93341C69.9771 7.93341 71.0093 8.96562 71.0093 10.2389V27.7607C71.0093 29.034 69.9771 30.0662 68.7038 30.0662C67.4305 30.0662 66.3983 29.034 66.3983 27.7607V10.2389Z" fill="#D9D9D9" fill-opacity="0.25"/>
<path d="M74.6981 14.8499C74.6981 13.5766 75.7303 12.5444 77.0035 12.5444C78.2768 12.5444 79.309 13.5766 79.309 14.8499V23.1497C79.309 24.423 78.2768 25.4552 77.0035 25.4552C75.7303 25.4552 74.6981 24.423 74.6981 23.1497V14.8499Z" fill="#D9D9D9" fill-opacity="0.25"/>
<path d="M82.9978 6.55012C82.9978 5.27683 84.03 4.24462 85.3033 4.24462C86.5766 4.24462 87.6088 5.27682 87.6088 6.55011V31.4495C87.6088 32.7227 86.5766 33.755 85.3033 33.755C84.03 33.755 82.9978 32.7228 82.9978 31.4495V6.55012Z" fill="#D9D9D9" fill-opacity="0.25"/>
<path d="M91.2976 2.40022C91.2976 1.12693 92.3298 0.0947266 93.6031 0.0947266C94.8764 0.0947266 95.9086 1.12693 95.9086 2.40022V35.5994C95.9086 36.8726 94.8764 37.9049 93.6031 37.9049C92.3298 37.9049 91.2976 36.8726 91.2976 35.5994V2.40022Z" fill="#D9D9D9" fill-opacity="0.25"/>
<path d="M99.5974 18.5387C99.5974 17.2654 100.63 16.2332 101.903 16.2332C103.176 16.2332 104.208 17.2654 104.208 18.5387V19.4609C104.208 20.7342 103.176 21.7664 101.903 21.7664C100.63 21.7664 99.5974 20.7342 99.5974 19.4609V18.5387Z" fill="#D9D9D9" fill-opacity="0.25"/>
<path d="M107.897 11.1611C107.897 9.88781 108.929 8.85561 110.203 8.85561C111.476 8.85561 112.508 9.88781 112.508 11.1611V26.8385C112.508 28.1118 111.476 29.144 110.203 29.144C108.929 29.144 107.897 28.1118 107.897 26.8385V11.1611Z" fill="#D9D9D9" fill-opacity="0.25"/>
<path d="M116.197 2.40022C116.197 1.12693 117.229 0.0947266 118.502 0.0947266C119.776 0.0947266 120.808 1.12693 120.808 2.40022V35.5994C120.808 36.8726 119.776 37.9049 118.502 37.9049C117.229 37.9049 116.197 36.8726 116.197 35.5994V2.40022Z" fill="#D9D9D9" fill-opacity="0.25"/>
<path d="M124.497 8.39451C124.497 7.12122 125.529 6.08902 126.802 6.08902C128.076 6.08902 129.108 7.12122 129.108 8.39451V29.6051C129.108 30.8784 128.076 31.9106 126.802 31.9106C125.529 31.9106 124.497 30.8784 124.497 29.6051V8.39451Z" fill="#D9D9D9" fill-opacity="0.25"/>
<path d="M132.797 13.9277C132.797 12.6544 133.829 11.6222 135.102 11.6222C136.375 11.6222 137.408 12.6544 137.408 13.9277V24.0719C137.408 25.3452 136.375 26.3774 135.102 26.3774C133.829 26.3774 132.797 25.3452 132.797 24.0719V13.9277Z" fill="#D9D9D9" fill-opacity="0.25"/>
<path d="M141.096 17.6165C141.096 16.3432 142.129 15.311 143.402 15.311C144.675 15.311 145.707 16.3432 145.707 17.6165V20.3831C145.707 21.6564 144.675 22.6886 143.402 22.6886C142.129 22.6886 141.096 21.6564 141.096 20.3831V17.6165Z" fill="#D9D9D9" fill-opacity="0.25"/>
</g>
</svg>
