<svg width="200" height="200" viewBox="0 0 200 200" fill="none" xmlns="http://www.w3.org/2000/svg">
<g clip-path="url(#clip0_541_8936)">
<path d="M52.533 103.332C52.8015 103.403 52.9101 104.097 52.7745 104.875C52.6388 105.654 52.3081 106.231 52.0395 106.161C51.771 106.09 51.6624 105.396 51.7981 104.617C51.9337 103.839 52.2645 103.261 52.533 103.332Z" fill="#F50000"/>
<path d="M42.8446 110.608C43.065 110.202 43.415 110.163 43.6221 110.522C43.8292 110.88 43.7196 111.335 43.3783 111.533C43.0369 111.73 42.6872 111.769 42.6007 111.619C42.5143 111.469 42.6242 111.015 42.8446 110.608Z" fill="#F50000"/>
<path d="M46.7375 98.1697C47.332 96.5808 49.2465 97.9963 48.9335 99.7932C48.8139 100.478 48.3806 101.029 47.9713 101.018C46.8576 100.988 46.2279 99.5329 46.7375 98.1697Z" fill="#F50000"/>
<path d="M60.2968 90.6723C60.5172 90.2657 60.8673 90.2271 61.0743 90.5858C61.2814 90.9444 61.1718 91.3996 60.8305 91.5967C60.4892 91.7938 60.1394 91.833 60.053 91.6832C59.9665 91.5335 60.0764 91.0789 60.2968 90.6723Z" fill="#F50000"/>
<path d="M36.8952 101.886C37.2353 100.635 38.3956 100.78 38.3532 102.068C38.3365 102.566 37.9381 102.964 37.4674 102.952C36.8934 102.936 36.7051 102.586 36.8952 101.886Z" fill="#F50000"/>
<path d="M46.3663 90.9094C46.7077 90.7124 47.1471 90.8284 47.3427 91.1673C47.5384 91.5063 47.4192 91.9448 47.0779 92.1419C46.7366 92.339 46.2972 92.2229 46.1015 91.884C45.9058 91.545 46.025 91.1065 46.3663 90.9094Z" fill="#F50000"/>
<path d="M28.6292 97.4525C28.8496 97.0459 29.2797 97.146 29.5846 97.6741C29.8896 98.2022 29.86 98.7961 29.5187 98.9931C29.1774 99.1902 28.7476 99.0908 28.5633 98.7715C28.379 98.4523 28.4089 97.8591 28.6292 97.4525Z" fill="#F50000"/>
<path d="M47.6905 86.0367C48.0318 85.8396 48.4712 85.9557 48.6669 86.2946C48.8626 86.6335 48.7434 87.0721 48.4021 87.2691C48.0607 87.4662 47.6214 87.3502 47.4257 87.0112C47.23 86.6723 47.3492 86.2337 47.6905 86.0367Z" fill="#F50000"/>
<path d="M44.4965 86.2374C44.8378 86.0404 45.2772 86.1564 45.4729 86.4954C45.6686 86.8343 45.5494 87.2728 45.208 87.4699C44.8667 87.667 44.4273 87.5509 44.2316 87.212C44.036 86.8731 44.1551 86.4345 44.4965 86.2374Z" fill="#F50000"/>
<path d="M52.3673 79.6827C52.8052 79.6944 53.1515 80.0606 53.137 80.497C53.1225 80.9335 52.7529 81.2808 52.315 81.269C51.8771 81.2573 51.5308 80.8911 51.5453 80.4547C51.5598 80.0182 51.9294 79.6709 52.3673 79.6827Z" fill="#F50000"/>
<path d="M36.0183 88.6674C36.3795 88.4588 36.6631 88.6648 36.6478 89.1256C36.6325 89.5863 36.4971 90.0342 36.3463 90.1213C36.1955 90.2084 35.9125 90.002 35.7169 89.6631C35.5212 89.3241 35.6571 88.8759 36.0183 88.6674Z" fill="#F50000"/>
<path d="M33.0692 84.0022C33.4427 83.5828 34.009 83.8384 34.4676 84.6328C34.9262 85.4271 34.8644 86.0453 34.3145 86.1591C33.806 86.2645 33.1768 85.9803 32.9161 85.5286C32.6553 85.0769 32.7237 84.3899 33.0692 84.0022Z" fill="#F50000"/>
<path d="M34.9256 77.5059C35.5352 77.4079 36.022 77.665 36.0081 78.0781C35.9792 78.9567 35.2808 79.4511 34.3981 79.2179C33.3582 78.9433 33.7431 77.6965 34.9256 77.5059Z" fill="#F50000"/>
<path d="M31.7793 72.0936C32.1039 71.9062 32.641 71.9937 32.9735 72.2873C33.3061 72.581 33.1133 73.0899 32.5442 73.4185C31.9751 73.7471 31.438 73.6595 31.35 73.2247C31.262 72.7899 31.4547 72.281 31.7793 72.0936Z" fill="#F50000"/>
<path d="M25.9376 70.6596C26.0884 70.5725 26.544 70.6793 26.9506 70.8964C27.3573 71.1135 27.3939 71.4621 27.0327 71.6706C26.6715 71.8792 26.2154 71.7728 26.0197 71.4339C25.824 71.0949 25.7868 70.7467 25.9376 70.6596Z" fill="#F50000"/>
<path d="M13.9447 70.6079C14.1689 70.195 14.6016 70.2895 14.9065 70.8176C15.5316 71.9003 15.2511 72.2743 14.2257 71.7266C13.8468 71.5247 13.7209 71.0214 13.9447 70.6079Z" fill="#F50000"/>
<path d="M19.1328 66.2174C19.0473 65.6119 19.2787 65.6731 19.7229 66.3738C20.1246 67.0079 20.1881 67.456 19.8639 67.3704C19.5397 67.2848 19.2104 66.7659 19.1328 66.2174Z" fill="#F50000"/>
<path d="M9.85957 63.5093C10.2009 63.3122 10.7203 63.5669 11.0139 64.0753C11.3074 64.5837 11.2683 65.1609 10.9269 65.358C10.5856 65.5551 10.0662 65.3003 9.77264 64.7919C9.47911 64.2836 9.51823 63.7063 9.85957 63.5093Z" fill="#F50000"/>
<path d="M16.256 10.1147C16.7899 9.13023 18.3789 9.18648 18.3455 10.1893C18.3316 10.618 18.0735 11.1113 17.7725 11.2851C16.9036 11.7867 15.8074 10.9414 16.256 10.1147Z" fill="#F50000"/>
<path d="M119.78 99.3762C120.199 99.3361 120.619 99.2959 121.037 99.2572C121.031 99.2796 121.024 99.3118 121.016 99.3417C120.622 100.265 120.591 100.248 119.78 99.3762ZM121.055 99.1961C121.084 99.094 121.073 99.129 121.055 99.1961V99.1961ZM131.421 112.911C132.032 112.457 132.655 111.99 133.328 111.485C132.932 110.657 132.556 109.882 132.193 109.121C132.48 108.955 132.645 108.86 132.697 108.83C132.531 107.165 132.371 105.544 132.223 103.998C130.165 103.078 129.197 101.19 127.913 99.6023C126.935 99.6831 126.162 99.4214 125.386 98.8291C124.529 98.1706 123.43 97.7966 122.313 97.2338C122.285 96.7443 122.995 95.6991 121.627 95.6382C121.11 96.4776 120.576 97.2665 120.13 98.0956C119.923 98.4811 119.892 98.9447 119.777 99.3775C119.458 99.9728 119.135 100.567 118.811 101.165C119.416 101.113 120.02 101.061 120.588 101.011C121.438 100.284 122.277 99.5654 123.188 98.7867C123.762 99.4285 124.273 99.9968 124.767 100.543C122.813 104.478 122.813 104.478 122.978 105.786C126.47 106.665 126.47 106.666 127.294 108.191C126.919 108.385 126.546 108.582 126.106 108.81C127.244 109.551 128.962 112.668 129.394 114.669C128.531 115.215 127.652 115.776 126.768 116.334C127.019 116.41 127.271 116.483 127.523 116.559C127.074 117.071 126.621 117.582 126.129 118.145C128.217 118.349 128.577 116.355 129.96 115.698C130.44 115.703 130.989 115.705 131.653 115.707C131.577 114.793 131.505 113.922 131.421 112.911Z" fill="#F50000"/>
<path d="M125.001 148.642C124.939 147.979 124.9 147.581 124.843 146.96C125.377 147.107 125.737 147.202 126.674 147.458C125.858 148.037 125.522 148.272 125.001 148.642ZM128.694 148.416C128.66 148.505 128.647 148.547 128.694 148.416V148.416ZM128.683 148.479C128.692 148.455 128.699 148.419 128.715 148.36C128.703 148.411 128.692 148.452 128.683 148.479ZM127.234 144.423C126.988 144.89 126.729 145.388 126.165 146.468C125.914 145.397 125.588 144.838 125.71 144.357C125.898 143.617 125.432 143.424 125.031 143.112C126.082 142.869 127.132 142.626 128.215 142.373C127.59 141.29 127.022 140.306 126.367 139.173C125.964 139.257 125.443 139.362 124.924 139.469L124.919 139.478C124.411 140.736 124.577 141.933 125.007 143.107C124.116 143.621 123.23 144.133 122.054 144.812C123.016 145.318 123.683 145.67 124.82 146.272C123.723 146.478 123.181 146.579 122.645 146.68C122.56 147.402 122.478 148.104 122.386 148.865C123.855 149.515 123.291 151.14 124.096 152.446C124.693 152.234 125.353 152.001 126.015 151.765L126.013 151.762C126.217 151.401 126.42 151.041 126.638 150.656C127.857 151.526 129.101 151.2 130.336 151.179C130.203 149.065 130.203 149.065 128.716 148.356C128.101 148.129 127.489 147.901 126.85 147.666C128.011 145.678 128.158 144.641 127.234 144.423Z" fill="#F50000"/>
<path d="M55.8213 138.739C56.0623 138.65 56.3044 138.558 56.7767 138.38C56.7183 138.774 56.6799 139.04 56.6036 139.577C56.2261 139.2 56.0143 138.997 55.806 138.789C55.3145 139.167 54.8264 139.541 54.0797 140.114C53.7496 138.503 53.4775 137.155 53.2043 135.811C52.6662 135.658 52.0683 135.487 51.4678 135.313C51.1501 135.796 50.8969 136.18 50.5535 136.7C51.1725 137.484 51.7574 138.231 52.5156 139.19C52.7663 140.038 52.1365 141.505 53.48 142.297C53.8363 141.788 54.1814 141.291 54.6117 140.676C55.1873 141.254 55.6058 141.68 56.0381 142.113C57.0561 141.759 57.9796 141.438 58.9045 141.119C58.8883 140.976 58.8758 140.835 58.861 140.695C58.3166 140.677 57.7737 140.662 57.0093 140.639C57.4788 139.966 57.888 139.385 58.3733 138.691C58.3061 137.851 58.2329 136.913 58.1491 135.865C57.2997 136.004 56.6808 136.102 55.8904 136.23C55.8652 137.155 55.8427 137.949 55.8213 138.739Z" fill="#F50000"/>
<path d="M111.513 150.907C111.351 151.003 111.183 151.097 111.015 151.182C110.809 151.032 110.605 150.881 110.314 150.67C110.456 150.493 110.572 150.284 110.747 150.148C110.878 150.047 111.082 150.046 111.358 149.975C111.411 150.289 111.46 150.599 111.513 150.907ZM112.19 147.917C112.175 147.837 112.162 147.76 112.147 147.68C112.415 147.655 112.683 147.633 112.949 147.609C113.424 146.648 113.899 145.691 114.373 144.738C112.781 144.924 111.355 145.093 109.951 145.259C108.357 146.9 110.529 148.137 110.321 149.626C109.46 149.904 108.523 148.897 107.966 150.353C108.558 150.824 109.201 151.338 109.808 151.818C110.333 151.553 110.671 151.38 111.01 151.207C111.403 151.485 111.585 151.403 111.515 150.906C112.793 150.474 111.707 149.442 112.275 148.728C113.027 148.97 114.026 148.637 114.487 149.648C114.564 149.819 115.217 149.71 115.686 149.733C115.163 148.828 114.771 148.147 114.484 147.652C113.815 147.64 113.379 147.636 112.944 147.628C112.694 147.724 112.443 147.822 112.19 147.917Z" fill="#F50000"/>
<path d="M87.3429 128.01C86.5551 128.882 86.0312 129.466 85.5563 129.993C84.8954 129.789 84.4472 129.65 83.7104 129.424C84.0426 130.794 84.3 131.866 84.5698 132.98C85.1633 133.159 85.6795 133.313 86.1896 133.468C86.9181 132.428 87.5054 131.589 88.2219 130.572C87.9261 129.706 87.6853 129.016 87.3429 128.01Z" fill="#F50000"/>
<path d="M153.948 47.6486C154.015 47.3888 153.984 47.5143 153.948 47.6486V47.6486ZM151.884 46.4949C152.668 46.9335 153.307 47.2949 153.945 47.6537C154.115 47.8399 154.287 48.0284 154.538 48.3005C155.045 47.7361 155.505 47.227 156.02 46.6548C155.357 46.4051 154.892 46.231 154.257 45.9908C154.657 45.5954 154.916 45.3478 155.17 45.0906C155.422 44.8311 155.667 44.5696 155.965 44.2585C155.686 43.9268 155.474 43.6793 155.288 43.4549C151.986 44.9029 151.986 44.9029 151.884 46.4949Z" fill="#F50000"/>
<path d="M140.544 77.199C139.833 77.0121 139.204 76.8475 138.39 76.6347C137.743 77.8429 137.205 78.8549 136.52 80.1387C137.3 79.9444 137.663 79.8549 138.209 79.7169C138.658 80.2006 139.006 80.5749 139.392 80.9936C140.099 80.3356 140.744 79.7387 141.637 78.9071C140.858 78.9715 140.501 79.0007 140.111 79.033C140.25 78.4468 140.37 77.9415 140.544 77.199Z" fill="#F50000"/>
<path d="M123.87 153.35C123.013 153.412 122.165 153.478 121.135 153.555C121.795 155.013 119.586 156.64 121.65 158.349C121.608 157.666 121.589 157.411 121.544 156.707C122.412 156.392 123.386 156.093 124.311 155.676C124.573 155.559 124.694 155.11 124.888 154.798C124.371 154.48 123.973 154.236 123.611 154.012C123.736 153.69 123.802 153.526 123.87 153.35Z" fill="#F50000"/>
<path d="M133.849 84.7594C133.169 85.4808 132.528 86.1608 131.888 86.8431L131.885 86.8482C132.256 87.4527 132.615 88.064 133.009 88.6488C133.058 88.722 133.305 88.6649 133.551 88.6678C133.636 87.955 133.717 87.2571 133.788 86.6443C134.954 85.9268 136.633 84.5305 136.807 83.962C135.711 84.2566 134.75 84.5177 133.849 84.7594Z" fill="#F50000"/>
<path d="M112.664 82.6874C112.135 84.0737 111.653 85.3385 110.94 87.2008C112.429 86.341 113.375 85.9056 114.185 85.2956C115.096 84.6087 114.931 84.0021 113.761 83.1668C113.777 83.1132 113.794 83.0498 113.824 82.9439C113.654 83.4277 113.7 83.2964 113.746 83.1627C113.431 83.0253 113.118 82.8866 112.664 82.6874Z" fill="#F50000"/>
<path d="M88.528 153.43C88.1148 154.026 87.7621 154.536 87.4566 154.981C87.7749 155.445 88.0058 155.78 88.2403 156.115C90.1617 155.411 90.312 153.772 90.9087 152.204C89.7755 152.315 88.902 152.402 87.9846 152.489C88.2077 152.875 88.398 153.205 88.528 153.43Z" fill="#F50000"/>
<path d="M114.619 156.843C113.654 157.681 113.137 156.621 112.269 156.881C112.14 157.262 111.994 157.685 111.801 158.248C112.845 158.287 113.701 158.321 114.434 158.35C114.299 159.234 114.241 159.606 114.135 160.309C114.955 159.901 115.437 159.664 115.693 159.535C115.795 158.857 115.895 158.395 115.921 157.934C115.977 157.023 115.144 156.391 114.619 156.843Z" fill="#F50000"/>
<path d="M156.348 76.7838C157.111 76.5929 157.893 76.3972 158.391 76.2742C158.766 75.1062 159.044 74.2438 159.323 73.3876C155.506 74.7281 155.444 74.799 156.348 76.7838Z" fill="#F50000"/>
<path d="M136.66 150.949C136.07 150.493 135.55 150.088 135.073 149.718C133.7 150.502 133.7 150.502 132.943 151.574C133.435 151.865 133.924 152.158 134.417 152.452C134.985 152.44 135.556 152.427 136.219 152.411C136.08 152.055 135.993 151.83 135.907 151.604C135.949 151.606 135.983 151.611 136.052 151.616C135.928 151.57 135.869 151.544 135.831 151.532C135.856 151.542 135.887 151.553 135.917 151.567C136.125 151.393 136.335 151.218 136.66 150.949Z" fill="#F50000"/>
<path d="M110.435 158.847C109.492 160.059 108.561 161.005 109.01 162.98C109.284 161.561 110.807 162.512 110.773 161.178C110.529 161.034 110.288 160.889 110.043 160.743C110.184 160.573 110.326 160.406 110.584 160.096C110.671 160.583 110.722 160.879 110.775 161.177C111.425 160.976 112.318 161.358 112.647 160.365C112.277 160.149 111.89 159.952 111.54 159.711C111.173 159.461 110.841 159.169 110.435 158.847Z" fill="#F50000"/>
<path d="M163.464 30.3362C163.89 31.0736 164.316 31.8109 164.715 32.5032C166.149 32.232 166.149 32.232 166.887 31.1226C166.308 30.7836 165.733 30.4457 165.158 30.1077C164.59 30.1857 164.021 30.2613 163.464 30.3362Z" fill="#F50000"/>
<path d="M110.881 135.065C111.195 136.752 111.456 138.156 111.804 140.004C112.258 138.936 112.6 138.135 112.959 137.298C112.384 136.559 112.323 135.468 110.881 135.065Z" fill="#F50000"/>
<path d="M121.509 140.843C122.36 140.052 123.166 139.321 123.943 138.566C124.023 138.487 123.936 138.254 123.921 138.06C123.237 138.056 122.546 138.057 121.655 138.059C121.707 138.927 120.616 139.807 121.509 140.843Z" fill="#F50000"/>
<path d="M106.653 85.9524C106.863 84.7915 107.076 83.6316 107.329 82.2366C105.747 83.2133 105.581 83.834 106.653 85.9524Z" fill="#F50000"/>
<path d="M104.469 151.633C103.967 152.64 103.386 153.81 102.804 154.981C102.926 155.04 103.047 155.096 103.168 155.153C103.806 154.234 104.44 153.312 105.086 152.38C104.766 151.995 104.533 151.71 104.469 151.633Z" fill="#F50000"/>
<path d="M104.469 151.633C104.448 151.607 104.444 151.606 104.469 151.633V151.633Z" fill="#F50000"/>
<path d="M141.194 40.0667C142.392 39.6817 142.468 39.1544 141.842 38.4727C141.507 38.574 141.2 38.6627 140.821 38.7777C140.907 38.2313 140.978 37.7826 141.071 37.1979C139.707 38.0518 139.707 38.0518 141.194 40.0667Z" fill="#F50000"/>
<path d="M118.131 138.952C118.752 139.055 119.259 139.138 119.966 139.252C119.944 138.578 119.932 138.089 119.91 137.305C119.074 137.387 118.577 137.434 118.015 137.489C118.062 138.094 118.095 138.505 118.131 138.952Z" fill="#F50000"/>
<path d="M60.994 150.006C62.9706 149.424 63.0323 149.259 61.8675 147.672C61.0263 148.315 60.9179 149.102 60.994 150.006Z" fill="#F50000"/>
<path d="M152.38 141.121C152.255 140.861 152.12 140.572 151.834 139.969C151.11 140.472 150.655 140.789 150.158 141.136C150.959 141.773 151.597 142.258 152.38 141.121Z" fill="#F50000"/>
<path d="M109.946 88.7771C109.406 87.6507 108.422 87.422 107.277 86.7395C107.405 87.63 107.478 88.1096 107.546 88.592L107.555 88.5964C108.407 87.6238 108.939 89.2319 109.946 88.7771Z" fill="#F50000"/>
<path d="M132.901 50.5577C133.549 50.7372 134.193 50.918 135.007 51.1468C134.949 50.425 134.915 50.024 134.858 49.3267C134.068 49.6184 133.485 49.8381 132.905 50.0528C132.902 50.222 132.902 50.3898 132.901 50.5577Z" fill="#F50000"/>
<path d="M137.372 91.1874C137.46 91.3012 137.546 91.4126 137.632 91.5277C138.706 90.9073 139.779 90.2882 140.853 89.6678C140.436 89.5167 140.021 89.3642 139.569 89.2016C138.792 89.9028 138.082 90.544 137.372 91.1874Z" fill="#F50000"/>
<path d="M119.58 83.0753C118.858 82.9394 118.429 82.855 117.951 82.7674C118.063 83.7175 118.153 84.544 118.257 85.4358C119.453 84.9003 119.01 83.8504 119.58 83.0753Z" fill="#F50000"/>
<path d="M102.076 143.345C102.106 144.083 102.125 144.654 102.147 145.226C102.314 145.265 102.485 145.306 102.652 145.345C102.966 144.712 103.276 144.074 103.676 143.259C103.103 143.29 102.679 143.313 102.076 143.345Z" fill="#F50000"/>
<path d="M115.652 145.419C116.282 144.958 116.616 144.711 117.136 144.332C116.563 143.857 116.151 143.513 115.362 142.853C115.484 143.936 115.551 144.526 115.652 145.419Z" fill="#F50000"/>
<path d="M59.4154 144.937C60.1505 145.214 60.5945 145.384 61.0432 145.552C61.1725 145.433 61.3051 145.309 61.4344 145.19C61.0391 144.451 60.6439 143.712 60.2462 142.974C60.5932 142.569 60.4972 142.419 59.9807 142.514C60.0683 142.666 60.1586 142.823 60.2462 142.974C59.9716 143.62 59.7006 144.266 59.4154 144.937Z" fill="#F50000"/>
<path d="M95.0498 143.791C95.3953 144.318 95.6218 144.662 96.1077 145.405C96.5634 144.551 96.8236 144.066 97.298 143.179C96.2572 143.46 95.6894 143.614 95.0498 143.791Z" fill="#F50000"/>
<path d="M166.461 38.7432C166.415 39.3767 166.624 39.9293 167.512 39.7201C167.56 39.0731 167.601 38.5025 167.642 37.9318C167.833 38.1155 168.026 38.2979 168.216 38.4793C168.29 38.3734 168.364 38.2674 168.439 38.1639C168.18 38.0637 167.923 37.9658 167.666 37.8703C166.742 37.4618 166.51 38.0986 166.461 38.7432Z" fill="#F50000"/>
<path d="M99.2702 157.909C99.372 157.916 99.5133 157.677 99.6395 157.547C99.4396 157.201 99.2384 156.852 98.7251 155.963C98.4247 156.841 98.2823 157.259 98.1399 157.676C98.5127 157.761 98.8874 157.877 99.2702 157.909Z" fill="#F50000"/>
<path d="M128.175 125.52C128.545 126.619 128.729 127.167 129.049 128.123C129.537 127.342 129.757 126.993 130.035 126.549C129.507 126.256 129.112 126.039 128.175 125.52Z" fill="#F50000"/>
<path d="M126.249 94.4077C126.249 94.4077 126.249 94.4077 126.247 94.4053C126.247 94.4053 126.249 94.4077 126.246 94.409L126.249 94.4077Z" fill="#F50000"/>
<path d="M126.246 94.409C125.527 94.9098 124.806 95.4083 123.999 95.9631C126.177 96.0581 126.21 96.0328 126.246 94.409Z" fill="#F50000"/>
<path d="M69.7788 179.823C70.2617 179.424 70.7423 179.027 71.2924 178.57C70.8364 178.188 70.5814 177.975 70.3277 177.764C70.0063 178.345 69.6863 178.928 69.3625 179.51C69.5008 179.614 69.6405 179.72 69.7788 179.823Z" fill="#F50000"/>
<path d="M70.3277 177.764C70.3277 177.764 70.3277 177.764 70.3264 177.762C70.3264 177.762 70.3263 177.762 70.3277 177.764Z" fill="#F50000"/>
<path d="M131.533 139.118C131.736 139.007 131.939 138.897 132.142 138.786C132.225 138.01 131.972 137.458 130.521 137.11C130.994 138.054 131.262 138.585 131.533 139.118Z" fill="#F50000"/>
<path d="M105.929 156.799C106.011 156.958 106.092 157.116 106.177 157.273C106.82 157.037 107.466 156.8 108.111 156.563C108.052 156.253 107.995 155.948 107.896 155.429C107.128 155.965 106.528 156.384 105.929 156.799Z" fill="#F50000"/>
<path d="M196.316 98.4533C196.252 99.2776 195.967 100.14 197.223 99.9908C197.695 99.0451 197.506 98.5501 196.316 98.4533Z" fill="#F50000"/>
<path d="M60.5523 154.133C61.3035 154.101 61.7502 154.08 62.5841 154.044C62.1396 153.416 61.9136 153.101 61.548 152.581C61.1809 153.154 60.9552 153.508 60.5523 154.133Z" fill="#F50000"/>
<path d="M160.456 44.9573C160.487 44.9616 160.547 44.826 160.592 44.7523C159.801 44.0557 159.801 44.0557 158.337 44.6446C159.195 44.7752 159.821 44.875 160.456 44.9573Z" fill="#F50000"/>
<path d="M128.099 88.0288C128.271 88.0813 128.443 88.1301 128.614 88.1804C128.972 87.7237 129.331 87.267 129.812 86.6538C129.265 86.5494 128.954 86.4889 128.545 86.412C128.373 87.0294 128.237 87.5284 128.099 88.0288Z" fill="#F50000"/>
<path d="M145.462 45.2178C146.05 45.5673 146.497 45.8343 147.19 46.2463C147.191 44.8647 146.879 44.4062 145.462 45.2178Z" fill="#F50000"/>
<path d="M59.9061 172.404C59.3422 172.777 58.9398 173.038 57.9607 173.682C59.2683 173.841 60.0467 173.932 60.8255 174.029C61.1254 174.239 61.423 174.449 61.7206 174.66C61.8355 174.565 61.9481 174.472 62.0606 174.378C61.9026 174.018 61.7436 173.661 61.5481 173.208C61.1999 173.595 61.0148 173.797 60.83 174.005C60.5343 173.493 60.2387 172.98 59.9061 172.404Z" fill="#F50000"/>
<path d="M148.339 47.1954C147.891 47.8679 148.259 48.1995 148.875 48.2547C149.176 48.2802 149.529 48.0002 150.24 47.6971C149.321 47.4537 148.835 47.3261 148.352 47.1971L148.339 47.1954Z" fill="#F50000"/>
<path d="M146.422 141.022C146.978 141.365 147.419 141.633 148.153 142.088C147.959 140.833 147.959 140.833 146.422 141.022Z" fill="#F50000"/>
<path d="M109.429 93.574C109.532 94.3078 109.596 94.745 109.699 95.4507C110.25 94.9364 110.512 94.6935 110.944 94.2927C110.42 94.0448 110.053 93.8712 109.429 93.574Z" fill="#F50000"/>
<path d="M98.3087 151.15C99.4614 151.878 99.4614 151.878 99.9177 150.486C99.3023 150.737 98.8095 150.94 98.3131 151.141L98.3087 151.15Z" fill="#F50000"/>
<path d="M139.857 39.9223C139.498 40.199 139.138 40.4732 138.782 40.7485C138.939 40.9171 139.1 41.0867 139.259 41.26C139.58 40.9329 139.905 40.6091 140.225 40.282C140.1 40.1643 139.981 40.0438 139.857 39.9223Z" fill="#F50000"/>
<path d="M143.723 70.5747C144.381 69.9354 144.827 69.5044 145.595 68.7608C144.672 68.9524 144.19 69.0536 143.647 69.1645C143.673 69.6493 143.69 69.9618 143.723 70.5747Z" fill="#F50000"/>
<path d="M135.374 55.917C135.372 55.9184 135.373 55.9208 135.373 55.9208C135.373 55.9208 135.375 55.9194 135.374 55.917Z" fill="#F50000"/>
<path d="M135.896 53.6116C135.665 54.6367 135.519 55.2766 135.376 55.9157C135.801 55.6009 136.228 55.2853 136.672 54.9559C136.434 54.5434 136.275 54.2683 135.896 53.6116Z" fill="#F50000"/>
<path d="M128.879 81.0979C128.494 81.2413 128.106 81.38 127.716 81.5262C127.809 81.7033 127.9 81.8781 127.992 82.0529C128.348 81.8474 128.701 81.6434 129.057 81.4379C128.995 81.3251 128.939 81.212 128.879 81.0979Z" fill="#F50000"/>
<path d="M133.333 69.9486C133.055 70.7632 132.886 71.2494 132.517 72.3289C133.747 71.4068 133.877 70.8922 133.333 69.9486Z" fill="#F50000"/>
<path d="M159.669 21.3901C159.878 21.2446 160.085 21.1028 160.294 20.9597C159.967 20.6969 159.635 20.433 159.305 20.1715C159.2 20.267 159.097 20.3611 158.992 20.4566C159.218 20.7657 159.442 21.0786 159.669 21.3901Z" fill="#F50000"/>
<path d="M161.427 37.6754C161.013 37.8009 160.596 37.9279 160.179 38.0548C160.203 38.1893 160.221 38.3242 160.244 38.4564C160.639 38.4275 161.034 38.3987 161.429 38.3698C161.427 38.1372 161.426 37.907 161.427 37.6754Z" fill="#F50000"/>
<path d="M106.572 158.877C106.364 159.017 106.155 159.156 105.95 159.296C106.274 159.564 106.6 159.835 106.922 160.104C107.029 160.011 107.134 159.915 107.24 159.822C107.018 159.508 106.792 159.193 106.572 158.877Z" fill="#F50000"/>
<path d="M191.914 99.5631C191.545 99.8452 191.179 100.13 190.812 100.414C190.914 100.498 191.015 100.581 191.115 100.666C191.384 100.295 191.655 99.9308 191.923 99.5638C192.732 99.0493 192.895 98.5194 191.751 97.7095C191.822 98.5285 191.867 99.0465 191.914 99.5631Z" fill="#F50000"/>
<path d="M61.9767 161.416C61.5861 161.534 61.1979 161.651 60.8087 161.771C60.8275 161.896 60.8416 162.024 60.858 162.151C61.2631 162.129 61.6645 162.106 62.0683 162.081C62.0387 161.861 62.004 161.638 61.9767 161.416Z" fill="#F50000"/>
<path d="M188.75 86.0013C188.428 86.5759 188.11 87.1515 187.792 87.7271C188.787 87.3869 189.245 86.8534 188.772 86.0074L188.75 86.0013Z" fill="#F50000"/>
<path d="M134.128 113.628C132.667 113.861 132.481 114.383 132.903 115.179C132.73 115.56 132.556 115.945 132.163 116.814C132.955 116.429 133.28 116.273 133.605 116.117C133.37 115.804 133.14 115.491 132.905 115.177C133.243 114.745 133.587 114.313 134.128 113.628Z" fill="#F50000"/>
<path d="M114.578 101.513C114.374 100.746 114.293 100.438 114.209 100.129C113.99 100.392 113.771 100.654 113.552 100.917C113.766 101.043 113.981 101.165 114.578 101.513Z" fill="#F50000"/>
<path d="M150.815 55.1575C150.843 55.3691 150.843 55.5931 150.92 55.7859C150.937 55.8266 151.232 55.7484 151.499 55.7109C151.434 55.4893 151.413 55.2578 151.294 55.0956C151.253 55.0343 150.982 55.1308 150.815 55.1575Z" fill="#F50000"/>
<path d="M148.214 55.4957C147.905 55.3102 147.612 55.1287 147.047 54.7815C147.237 55.7088 147.369 56.3124 148.214 55.4957Z" fill="#F50000"/>
<path d="M132.846 69.2302C132.712 69.0701 132.499 68.9782 132.308 68.8545C132.161 69.0884 132.074 69.2329 131.983 69.3742C132.188 69.4677 132.386 69.5874 132.606 69.6311C132.65 69.6371 132.884 69.2745 132.846 69.2302Z" fill="#F50000"/>
<path d="M153.928 57.0621C153.956 57.2736 153.959 57.4963 154.034 57.6867C154.052 57.7274 154.343 57.6506 154.607 57.6121C154.544 57.3892 154.523 57.1613 154.406 56.9978C154.362 56.9379 154.095 57.0353 153.928 57.0621Z" fill="#F50000"/>
<path d="M64.2467 152.244C64.857 151.891 65.1492 151.723 65.8774 151.302C65.1341 151.207 64.7697 151.06 64.6626 151.163C64.4763 151.346 64.4482 151.678 64.2467 152.244Z" fill="#F50000"/>
<path d="M102.975 85.1987C103.121 85.2002 103.264 85.2029 103.408 85.202C103.449 84.8052 103.486 84.4075 103.524 84.0097C103.38 84.0107 103.237 84.0078 103.095 84.0074C103.055 84.4066 103.014 84.8033 102.975 85.1987Z" fill="#F50000"/>
<path d="M121.395 124.525C121.047 124.331 120.7 124.137 120.349 123.944C120.274 124.041 120.198 124.138 120.124 124.238C120.446 124.498 120.767 124.755 121.09 125.014C121.191 124.852 121.294 124.688 121.395 124.525Z" fill="#F50000"/>
<path d="M66.2486 160.271C66.4557 160.5 66.6666 160.729 66.8761 160.955C67.0065 160.757 67.2925 160.469 67.2391 160.376C67.1077 160.148 66.8184 160.012 66.5941 159.841C66.4785 159.984 66.3629 160.126 66.2486 160.271Z" fill="#F50000"/>
<path d="M118.408 132.103C118.743 131.894 119.025 131.713 119.383 131.484C118.389 131.16 118.389 131.16 118.408 132.103Z" fill="#F50000"/>
<path d="M82.5761 156.835C82.9527 156.943 83.327 157.053 83.706 157.159C83.758 157.016 83.8087 156.869 83.8608 156.725C83.726 156.639 83.5766 156.456 83.4622 156.481C83.1578 156.553 82.8686 156.71 82.5761 156.835Z" fill="#F50000"/>
<path d="M82.1332 160.58C82.2622 160.809 82.5492 160.947 82.7725 161.121C82.8928 160.976 83.0108 160.832 83.1321 160.683C82.9189 160.455 82.7104 160.225 82.4996 159.995C82.3668 160.195 82.0794 160.481 82.1332 160.58Z" fill="#F50000"/>
<path d="M69.5508 177.164C69.9137 177.444 70.1211 177.602 70.3264 177.762C70.4863 177.391 70.6466 177.021 71.0657 176.049C70.2102 176.679 69.9022 176.907 69.5508 177.164Z" fill="#F50000"/>
<path d="M135.373 55.9208C135.223 56.4279 135.074 56.9379 134.926 57.4437C135.124 57.4495 135.324 57.4538 135.522 57.4595C135.471 56.9456 135.425 56.4347 135.373 55.9208Z" fill="#F50000"/>
<path d="M116.865 44.0167C117.635 44.2933 118.018 44.4292 118.628 44.6488C118.448 44.108 118.37 43.8749 118.292 43.6418L118.265 43.6323C117.95 43.719 117.636 43.8058 116.865 44.0167Z" fill="#F50000"/>
<path d="M127.223 88.187C126.983 88.2118 126.744 88.2011 126.53 88.2771C126.473 88.2975 126.457 88.7112 126.505 88.7243C126.713 88.7846 126.952 88.7635 127.181 88.7736C127.193 88.6149 127.207 88.4487 127.223 88.187Z" fill="#F50000"/>
<path d="M120.899 92.5428C120.512 92.6398 120.126 92.7391 119.738 92.8338C119.756 92.9527 119.775 93.0717 119.793 93.1907C120.183 93.1645 120.574 93.1384 120.964 93.1122C120.942 92.9224 120.918 92.7339 120.899 92.5428Z" fill="#F50000"/>
<path d="M160.969 148.723C161.341 148.865 161.709 149.007 162.078 149.151C162.139 149.024 162.201 148.897 162.263 148.77C161.894 148.625 161.527 148.48 161.16 148.335C161.097 148.466 161.033 148.594 160.969 148.723Z" fill="#F50000"/>
<path d="M161.291 28.0312C161.293 28.0336 161.293 28.0336 161.293 28.0336L161.291 28.0312Z" fill="#F50000"/>
<path d="M135.603 52.3576C135.764 52.3373 136.038 52.3497 136.06 52.2897C136.138 52.0929 136.121 51.8685 136.142 51.6541C136.01 51.6483 135.879 51.6387 135.747 51.6328C135.698 51.8757 135.652 52.1172 135.603 52.3576Z" fill="#F50000"/>
<path d="M56.1753 145.388C56.148 145.498 56.1171 145.608 56.0874 145.72C56.3496 145.793 56.6103 145.863 56.8724 145.937C56.9094 145.767 56.9492 145.601 56.9862 145.431C56.7167 145.416 56.4448 145.403 56.1753 145.388Z" fill="#F50000"/>
<path d="M120.021 118.434C119.761 118.359 119.506 118.282 119.249 118.202C119.201 118.325 119.155 118.447 119.111 118.567C119.372 118.638 119.63 118.71 119.89 118.778C119.932 118.665 119.977 118.548 120.021 118.434Z" fill="#F50000"/>
<path d="M134.334 111.437C134.419 111.378 134.504 111.323 134.584 111.267C134.421 111.023 134.259 110.775 134.097 110.531C134.006 110.593 133.916 110.654 133.825 110.713C133.995 110.953 134.166 111.196 134.334 111.437Z" fill="#F50000"/>
<path d="M123.036 123.009C123.155 123.029 123.274 123.046 123.393 123.066C123.48 122.826 123.566 122.583 123.652 122.34C123.492 122.307 123.329 122.271 123.169 122.237C123.125 122.493 123.08 122.753 123.036 123.009Z" fill="#F50000"/>
<path d="M134.839 115.518C134.812 115.619 134.789 115.714 134.763 115.811C135.011 115.848 135.26 115.882 135.51 115.918C135.531 115.829 135.55 115.743 135.571 115.654C135.326 115.61 135.082 115.564 134.839 115.518Z" fill="#F50000"/>
<path d="M115.406 134.434C115.671 134.486 115.937 134.538 116.203 134.59C116.237 134.47 116.271 134.349 116.307 134.227C116.04 134.172 115.772 134.122 115.505 134.067C115.471 134.188 115.438 134.311 115.406 134.434Z" fill="#F50000"/>
<path d="M138.546 66.7457C138.812 66.8137 139.075 66.883 139.338 66.9524C139.378 66.8374 139.421 66.721 139.466 66.6033C139.202 66.5316 138.942 66.4571 138.681 66.3803C138.632 66.5031 138.59 66.6256 138.546 66.7457Z" fill="#F50000"/>
<path d="M96.1046 150.319C96.3617 150.389 96.6187 150.459 96.8748 150.532C96.9094 150.364 96.944 150.195 96.9801 150.029C96.7156 150.017 96.4499 150.003 96.1841 149.989C96.1592 150.098 96.1319 150.209 96.1046 150.319Z" fill="#F50000"/>
<path d="M102.367 146.771C102.247 146.765 102.133 146.758 102.015 146.75C101.959 147.013 101.899 147.278 101.842 147.539C101.978 147.552 102.116 147.561 102.254 147.573C102.289 147.306 102.327 147.041 102.367 146.771Z" fill="#F50000"/>
<path d="M132.415 131.243C132.694 130.911 132.878 130.691 133.059 130.476L133.063 130.461C132.759 130.516 132.454 130.575 132.149 130.631C132.228 130.816 132.305 130.999 132.415 131.243Z" fill="#F50000"/>
<path d="M120.154 142.005C120.212 141.769 120.272 141.529 120.329 141.291C120.18 141.288 119.924 141.247 119.904 141.289C119.818 141.488 119.795 141.71 119.747 141.927C119.882 141.953 120.019 141.978 120.154 142.005Z" fill="#F50000"/>
<path d="M70.9386 175.056C71.1364 175.116 71.3701 175.085 71.5888 175.088C71.6065 174.961 71.6218 174.835 71.6348 174.711C71.3889 174.682 71.143 174.653 70.898 174.621C70.9076 174.774 70.8762 175.035 70.9386 175.056Z" fill="#F50000"/>
<path d="M121.578 151.476C121.556 151.574 121.534 151.672 121.51 151.771C121.76 151.807 122.005 151.845 122.253 151.883C122.278 151.795 122.298 151.705 122.317 151.618C122.072 151.57 121.829 151.524 121.578 151.476Z" fill="#F50000"/>
<path d="M116.731 155.216C116.976 155.286 117.224 155.358 117.469 155.428C117.52 155.266 117.568 155.105 117.617 154.944C117.353 154.917 117.086 154.89 116.822 154.863C116.793 154.981 116.76 155.098 116.731 155.216Z" fill="#F50000"/>
<path d="M109.808 163.742C109.9 163.755 109.991 163.77 110.084 163.785C110.15 163.545 110.214 163.302 110.283 163.063C110.183 163.048 110.08 163.032 109.979 163.015C109.921 163.257 109.866 163.5 109.808 163.742Z" fill="#F50000"/>
<path d="M153.364 16.613C153.364 16.613 153.364 16.613 153.366 16.6116L153.365 16.6092L153.364 16.613Z" fill="#F50000"/>
<path d="M142.129 65.8493C142.13 65.6876 142.131 65.5258 142.134 65.3628C141.745 65.4452 141.354 65.5252 140.968 65.6063C140.662 65.6692 140.36 65.7295 140.054 65.7924C140.136 65.9666 140.215 66.142 140.321 66.3808C140.604 66.0436 140.786 65.825 140.968 65.6063C141.355 65.6893 141.743 65.7687 142.129 65.8493Z" fill="#F50000"/>
<path d="M159.567 149.39C159.834 149.438 160.099 149.49 160.37 149.54C160.4 149.418 160.43 149.296 160.46 149.174C160.194 149.126 159.929 149.076 159.664 149.03C159.633 149.15 159.599 149.271 159.567 149.39Z" fill="#F50000"/>
<path d="M146.32 65.2225C146.421 65.2399 146.525 65.256 146.625 65.2711C146.684 65.0312 146.741 64.7928 146.799 64.5506C146.706 64.5352 146.616 64.5208 146.52 64.5067C146.456 64.7455 146.389 64.9833 146.32 65.2225Z" fill="#F50000"/>
<path d="M158.118 43.0291C158.073 43.2668 158.025 43.506 157.978 43.7451C158.137 43.7261 158.411 43.7385 158.432 43.6822C158.502 43.4833 158.487 43.2613 158.507 43.0508C158.376 43.0412 158.247 43.0363 158.118 43.0291Z" fill="#F50000"/>
<path d="M165.626 57.1545C165.578 57.3974 165.528 57.6378 165.476 57.8796C165.636 57.857 165.904 57.8697 165.933 57.8056C166.01 57.6126 165.995 57.3905 166.016 57.1761C165.886 57.1689 165.756 57.1617 165.626 57.1545Z" fill="#F50000"/>
<path d="M145.157 152.501C145.288 152.488 145.42 152.478 145.551 152.466C145.472 152.208 145.394 151.949 145.316 151.694C145.263 151.962 145.208 152.231 145.157 152.501Z" fill="#F50000"/>
<path d="M134.083 153.217C134.194 152.963 134.305 152.709 134.412 152.455C134.195 152.644 133.977 152.832 133.757 153.023C133.866 153.086 133.974 153.154 134.083 153.217Z" fill="#F50000"/>
<path d="M134.413 152.451C134.415 152.453 134.415 152.453 134.412 152.455C134.415 152.453 134.415 152.453 134.417 152.452C134.416 152.45 134.413 152.451 134.413 152.451Z" fill="#F50000"/>
<path d="M150.76 136.862C150.76 136.862 150.76 136.862 150.762 136.86C150.76 136.862 150.76 136.862 150.757 136.863L150.76 136.862Z" fill="#F50000"/>
<path d="M151.088 136.097C150.978 136.353 150.869 136.605 150.762 136.86C150.978 136.669 151.194 136.481 151.414 136.291C151.303 136.225 151.197 136.16 151.088 136.097Z" fill="#F50000"/>
<path d="M108.111 156.563L108.108 156.564C108.111 156.563 108.111 156.563 108.111 156.563Z" fill="#F50000"/>
<path d="M109.463 156.042C108.617 156.368 108.364 156.468 108.111 156.563C108.2 156.718 108.287 156.869 108.376 157.023C108.589 156.83 108.806 156.635 109.463 156.042Z" fill="#F50000"/>
<path d="M108.378 157.025C108.376 157.023 108.376 157.023 108.376 157.023C108.376 157.023 108.376 157.023 108.374 157.024L108.378 157.025Z" fill="#F50000"/>
<path d="M66.1327 154.335C65.594 154.485 64.6938 154.28 65.1843 155.587C65.5719 155.088 65.8609 154.713 66.1513 154.34C66.3626 154.145 66.5748 153.947 66.7861 153.752C66.6808 153.69 66.5705 153.624 66.4639 153.559C66.3532 153.819 66.2411 154.076 66.1327 154.335Z" fill="#F50000"/>
<path d="M103.106 130.627C102.845 130.544 102.587 130.456 102.325 130.373C102.511 130.57 102.695 130.764 102.879 130.958C102.956 130.85 103.031 130.737 103.106 130.627Z" fill="#F50000"/>
<path d="M126.016 93.6289C126.093 93.8878 126.17 94.1464 126.247 94.4053C126.306 94.1374 126.362 93.8687 126.414 93.6011C126.282 93.6112 126.147 93.6226 126.016 93.6289Z" fill="#F50000"/>
<path d="M150.232 70.1042C150.509 70.1335 150.788 70.1652 151.065 70.1983C151.062 70.0735 151.062 69.9474 151.057 69.8203C150.785 69.9143 150.506 70.0088 150.233 70.1005L150.232 70.1042Z" fill="#F50000"/>
<path d="M151.96 65.6145C151.686 65.7001 151.412 65.782 151.138 65.8676L151.123 65.9174C151.404 65.9417 151.686 65.9622 151.969 65.985C151.967 65.8603 151.963 65.7392 151.96 65.6145Z" fill="#F50000"/>
<path d="M138.67 55.8632C138.857 56.0558 139.042 56.2521 139.229 56.4447C139.305 56.3374 139.378 56.2291 139.453 56.1194C139.194 56.0314 138.936 55.9434 138.674 55.8544L138.67 55.8632Z" fill="#F50000"/>
<path d="M146.82 48.4013C146.747 48.5096 146.671 48.6169 146.598 48.7252C146.856 48.8132 147.116 48.9036 147.374 48.9916C147.562 49.1866 147.75 49.3815 147.94 49.5751C148.015 49.4654 148.088 49.3571 148.163 49.2475C147.901 49.1585 147.641 49.0681 147.379 48.979C147.194 48.7827 147.008 48.5925 146.82 48.4013Z" fill="#F50000"/>
<path d="M137.03 42.6825C137.227 42.8659 137.423 43.047 137.622 43.229C137.695 43.1207 137.767 43.0124 137.839 42.9079C137.576 42.8127 137.315 42.7139 137.049 42.6178L137.03 42.6825Z" fill="#F50000"/>
<path d="M118.619 42.8689C118.502 43.123 118.384 43.3768 118.265 43.6323L118.292 43.6418C118.506 43.4458 118.721 43.2525 118.936 43.0589C118.827 42.9953 118.724 42.9314 118.619 42.8689Z" fill="#F50000"/>
<path d="M153.632 17.0772C153.631 17.0749 153.631 17.0749 153.632 17.0711C153.629 17.0725 153.629 17.0725 153.629 17.0725C153.631 17.0749 153.631 17.0749 153.632 17.0772Z" fill="#F50000"/>
<path d="M153.873 17.865C153.79 17.6027 153.71 17.3385 153.632 17.0772C153.578 17.3425 153.521 17.6097 153.468 17.8773C153.603 17.8719 153.736 17.8679 153.873 17.865Z" fill="#F50000"/>
<path d="M155.019 15.4519C154.93 15.386 154.843 15.3224 154.751 15.2555C154.588 15.4951 154.423 15.7324 154.256 15.9711C154.293 15.991 154.329 16.0147 154.365 16.0346C154.031 16.2278 153.698 16.4198 153.366 16.6116C153.455 16.7657 153.544 16.9194 153.632 17.0711C154.334 17.0098 154.954 16.8961 154.367 16.037C154.384 16.0458 154.4 16.0559 154.415 16.0661C154.617 15.8609 154.819 15.6557 155.019 15.4519Z" fill="#F50000"/>
<path d="M133.119 38.145C133.515 38.4504 133.677 38.3504 133.616 37.8579C133.449 37.9545 133.284 38.0498 133.119 38.145Z" fill="#F50000"/>
<path d="M59.9807 142.514C59.9807 142.514 59.9804 142.514 59.979 142.512L59.9807 142.514Z" fill="#F50000"/>
<path d="M70.4959 117.986C70.4946 117.984 70.4946 117.984 70.4946 117.984L70.4959 117.986Z" fill="#F50000"/>
<path d="M70.4946 117.984C71.0657 117.493 72.1193 117.412 72.1683 116.262C70.7614 116.252 70.4556 116.969 70.4946 117.984Z" fill="#F50000"/>
<path d="M67.2985 112.448C67.7314 112.811 68.1656 113.177 68.5974 113.544C68.9026 113.055 69.2078 112.566 69.8759 111.497C68.5955 111.968 67.9451 112.207 67.2985 112.448Z" fill="#F50000"/>
<path d="M67.5259 115.149C68.0159 115.998 68.224 116.359 68.4307 116.717C68.6624 116.497 68.8977 116.279 69.2046 115.995C68.708 115.744 68.3753 115.576 67.5259 115.149Z" fill="#F50000"/>
<path d="M68.5974 113.544C68.2922 113.739 67.9873 113.935 67.6808 114.128C68.3506 114.493 68.5717 114.169 68.5974 113.544Z" fill="#F50000"/>
<path d="M75.8476 100.719C75.6368 100.92 75.4306 101.118 75.2198 101.319C75.3263 101.384 75.4329 101.449 75.5381 101.511C75.6587 101.252 75.7792 100.993 75.9007 100.73L75.8476 100.719Z" fill="#F50000"/>
<path d="M74.322 79.1276C74.4479 79.1498 74.5738 79.1719 74.6997 79.1941C74.7716 78.9376 74.8407 78.6764 74.9173 78.4173C74.7937 78.3938 74.6679 78.3716 74.543 78.3457C74.4701 78.6059 74.3972 78.8661 74.322 79.1276Z" fill="#F50000"/>
<path d="M87.3305 69.6164C88.2687 69.5489 89.2045 69.4827 90.8062 69.3672C89.2302 68.4659 88.2735 68.5504 87.3305 69.6164Z" fill="#F50000"/>
<path d="M90.1072 52.7928C89.2704 52.6659 88.6532 52.5765 88.037 52.4833C87.691 52.8854 87.345 53.2875 86.8565 53.8508C87.5647 54.1848 88.0829 54.4294 88.7028 54.7195C89.2167 54.015 89.6191 53.4603 90.1072 52.7928Z" fill="#F50000"/>
<path d="M108.395 63.4951C108.23 63.5904 108.065 63.6856 107.898 63.7822C108.293 64.0792 108.462 63.991 108.395 63.4951Z" fill="#F50000"/>
<path d="M75.9611 66.2228C75.7985 66.3167 75.6349 66.4143 75.4751 66.5129C75.8829 66.8275 76.0246 66.6919 75.9611 66.2228Z" fill="#F50000"/>
<path d="M179.328 46.3133C179.115 46.0205 178.767 45.8957 178.739 46.102C178.731 46.1653 178.591 46.2331 178.429 46.253C178.185 46.2828 178.118 46.3995 178.047 46.9215C178 47.2693 177.857 48.0263 177.73 48.6036L177.497 49.6532L173.462 49.1687L173.187 50.9157C173.036 51.8765 172.961 52.7202 173.021 52.7903C173.082 52.8622 173.314 52.8759 173.553 52.8224C173.807 52.7657 173.971 52.7725 174.068 52.8443L174.141 52.9117C174.233 52.9745 174.373 52.9384 174.581 52.7997C174.857 52.6155 175.176 52.5843 176.162 52.6479C177.052 52.7051 177.423 52.7764 177.488 52.9023C177.635 53.1903 177.624 54.7426 177.469 55.7067C177.303 56.74 177.402 56.891 178.128 56.7055C178.642 56.5743 179.065 56.6776 179.031 56.927C179.018 57.0224 179.076 57.0243 179.204 56.9325C179.31 56.857 179.513 56.8085 179.655 56.8245C179.845 56.8457 179.926 56.7516 179.964 56.4676C179.993 56.2555 180.11 55.9422 180.224 55.7717C180.382 55.5367 180.397 55.4123 180.288 55.2567C180.07 54.9467 180.401 53.5653 180.783 53.195C181.091 52.8955 181.13 52.8937 182.7 53.0948C183.597 53.2097 184.369 53.2503 184.454 53.1872C184.537 53.1245 184.693 52.5769 184.802 51.97L185 50.8656L184.566 50.8586C183.486 50.8413 183.269 50.8008 183.292 50.6183C183.305 50.5165 183.238 50.3994 183.144 50.3584C183.049 50.3174 182.96 50.377 182.945 50.4907C182.906 50.7735 181.873 50.6524 181.435 50.3138C181.158 50.0997 181.13 49.9954 181.256 49.632C181.338 49.3962 181.37 49.0949 181.328 48.962C181.286 48.8291 181.316 48.2978 181.395 47.7817C181.542 46.8213 181.443 46.5424 181.04 46.7782C180.709 46.9719 180.394 46.7612 180.445 46.3798C180.497 45.9923 180.275 45.9138 180.102 46.2585C179.925 46.6128 179.565 46.6383 179.328 46.3133Z" fill="#F50000"/>
<path d="M30 26.9548C30 27.4919 30.9311 29.2823 32.0949 30.9532C34.4808 34.2952 36.4012 37.6968 36.4012 38.5323C36.4012 38.771 35.5283 39.2484 34.539 39.4274C33.4916 39.6661 31.9786 40.1435 31.222 40.3822C29.4181 41.0984 29.7672 41.5161 38.147 48.4387C41.8131 51.4226 45.4793 54.6451 46.2358 55.4806C47.807 57.2113 49.4946 57.5097 49.9601 56.1371C50.1929 55.6597 49.3782 53.929 48.2725 52.1984C45.3047 47.7822 42.686 43.1871 43.0352 42.8887C43.1516 42.7097 44.5482 42.2919 46.0612 41.8742C47.5742 41.5161 48.9126 40.8597 49.029 40.5016C49.32 39.6064 32.6769 26 31.222 26C30.4655 26 30 26.3581 30 26.9548Z" fill="#F50000"/>
<path d="M37.4455 119.363C31.5888 120.969 26.7248 122.536 26.5408 122.908C26.2516 123.493 28.6986 126.159 30.3156 126.958C31.6197 127.603 29.1044 129.934 24.2104 132.744C21.279 134.472 19.4983 135.842 19.444 136.477C19.3367 137.351 19.6238 137.427 21.6102 137.085C22.891 136.857 24.3287 136.575 24.8253 136.49C25.3482 136.351 29.5047 135.427 34.0794 134.445C38.6804 133.41 42.4977 132.384 42.5511 132.013C42.6304 131.722 41.6673 130.65 40.4166 129.635C39.1397 128.672 38.2029 127.547 38.2826 127.124C38.3102 126.674 40.3263 125.221 42.7865 123.79C50.7951 119.144 50.7951 119.144 50.2234 118.199C49.1581 116.415 47.6424 116.592 37.4455 119.363Z" fill="#F50000"/>
<path d="M183.242 110.988C177.633 108.997 172.878 107.639 172.621 107.919C172.313 108.229 172.478 109.723 172.939 111.244C174.013 114.794 173.409 115.076 165.621 114.741C162.357 114.639 159.341 114.726 158.975 114.937C157.146 115.993 158.852 117.259 164.399 119.021C167.565 120.039 172.493 121.695 175.311 122.716C178.101 123.686 180.634 124.21 180.89 123.93C181.198 123.619 181.057 122.046 180.672 120.415C180.259 118.734 180.07 117.32 180.331 117.17C180.54 117.049 183.399 117.053 186.611 117.185C193.248 117.457 194.494 117.201 193.872 115.64C193.604 114.935 189.96 113.331 183.242 110.988Z" fill="#F50000"/>
<path d="M38.3656 152.651C38.3918 152.247 38.6379 151.94 38.7819 152.13C38.8263 152.189 38.9934 152.182 39.153 152.117C39.393 152.018 39.5212 152.099 39.8862 152.582C40.1294 152.904 40.6962 153.583 41.1454 154.091L41.9621 155.016L45.3702 152.403L46.6273 154C47.3185 154.878 47.8729 155.68 47.8586 155.781C47.8435 155.885 47.6398 156.021 47.3909 156.094C47.1263 156.172 46.9795 156.266 46.9325 156.388L46.9042 156.494C46.8569 156.604 46.7076 156.643 46.4381 156.614C46.0798 156.576 45.7705 156.713 44.9053 157.297C44.1256 157.823 43.8274 158.09 43.8407 158.25C43.8724 158.614 44.775 160.157 45.4719 161.036C46.2186 161.978 46.2144 162.181 45.4444 162.379C44.8989 162.52 44.5729 162.846 44.7469 163.077C44.8131 163.165 44.762 163.197 44.5917 163.174C44.4515 163.154 44.2382 163.213 44.1178 163.304C43.9568 163.425 43.8281 163.374 43.6298 163.111C43.4818 162.915 43.1937 162.665 42.9909 162.555C42.7115 162.404 42.6262 162.287 42.6365 162.074C42.6569 161.65 41.5591 160.448 40.9975 160.28C40.5433 160.145 40.5072 160.163 39.1884 161.192C38.4349 161.78 37.7519 162.228 37.6381 162.21C37.5261 162.191 37.0682 161.727 36.6195 161.18L35.8027 160.183L36.1955 159.947C37.1726 159.36 37.3463 159.205 37.2205 159.035C37.1505 158.941 37.1448 158.788 37.2073 158.698C37.27 158.607 37.3859 158.62 37.4653 158.725C37.6632 158.986 38.5379 158.32 38.7435 157.751C38.8732 157.392 38.8381 157.274 38.5137 156.978C38.3032 156.787 38.1008 156.503 38.0629 156.348C38.0251 156.193 37.6915 155.679 37.3223 155.206C36.6353 154.326 36.5647 153.996 37.0686 154.018C37.483 154.036 37.6494 153.661 37.3834 153.308C37.1129 152.949 37.2699 152.754 37.6265 153.006C37.9927 153.265 38.3367 153.1 38.3656 152.651Z" fill="#F50000"/>
<path d="M145.845 147.589C144.733 147.84 144.845 149.162 146.483 154.162C147.065 155.969 147.671 158.619 147.857 160.095C148.323 163.144 147.898 163.444 144.279 162.815C140.411 162.164 140.405 162.546 144.256 168.899C148.349 175.658 153.813 183.796 154.383 183.996C155.409 184.356 155.539 181.066 154.668 178.26C153.538 174.913 152.214 169.383 152.374 168.926C152.434 168.755 154.059 168.684 155.949 168.769C157.859 168.798 159.484 168.727 159.564 168.499C159.805 167.813 158.824 165.866 155.215 159.919C153.244 156.598 150.826 152.543 149.936 150.884C148.21 147.778 147.513 147.212 145.845 147.589Z" fill="#F50000"/>
<path d="M96.2423 45.3135C97.277 45.4382 100.257 45.6956 102.855 45.9373C105.445 46.2256 107.632 46.3508 107.733 46.3198C107.837 46.2891 110.123 46.6702 112.852 47.2695C118.46 48.4453 126.037 50.7651 126.768 51.5587C127.056 51.8466 127.795 52.3053 128.464 52.6088C129.405 53.0057 129.599 53.2783 129.257 53.8926C128.86 54.546 128.907 54.5543 129.701 54.111C130.44 53.7068 130.72 53.7532 131.202 54.3133C131.521 54.7022 131.824 54.8967 131.855 54.71C131.881 54.572 133.653 55.7314 135.83 57.3409C141.508 61.5507 145.607 66.8883 147.131 72.1319C149.735 80.9615 149.719 80.7674 148.886 86.0493C148.349 89.2699 147.625 91.8841 146.807 93.6187C146.13 95.0888 145.399 96.886 145.173 97.6638C144.752 99.0339 140.652 106.072 138.66 108.81C138.045 109.619 136.605 111.634 135.461 113.314C134.371 114.955 132.722 117.079 131.944 118.004C131.119 118.922 129.749 120.516 128.947 121.582C124.574 127.377 112.148 139.744 104.702 145.841C96.6493 152.413 92.0274 153.944 87.508 151.415C85.579 150.325 82.7019 147.447 83.7286 147.618C84.0086 147.664 84.2418 147.416 84.1564 147.066C84.1095 146.77 83.728 146.466 83.2925 146.49C82.5217 146.503 79.5744 142.318 75.5933 135.706C71.8839 129.474 69.2709 123.857 69.8077 123.226C69.9943 122.97 69.8393 122.752 69.4194 122.682C68.9994 122.612 68.6024 122.114 68.548 121.578C68.4936 121.041 68.2841 120.574 68.0975 120.542C67.8642 120.503 67.6147 119.983 67.5293 119.345C67.4827 118.761 66.7366 116.621 65.959 114.669C64.2873 110.6 60.9441 100.159 61.0608 99.4586C61.0995 99.2244 60.7418 97.6296 60.26 95.9186C59.3271 92.5959 57.7739 80.0565 57.7825 75.6923C57.8065 72.6739 60.4931 63.1913 61.8004 61.6822C62.2128 61.2231 63.0532 59.9237 63.7224 58.7882C64.6015 57.2564 65.0525 56.8522 65.5813 57.1321C66.1491 57.4668 66.2666 57.3416 66.1812 56.4159C65.9412 53.8331 71.5501 49.8278 77.7813 48.1332C79.8429 47.5658 82.5584 46.8199 83.811 46.5012C86.4249 45.7861 93.4959 45.0953 96.2423 45.3135ZM104.346 137.626C103.973 137.564 103.615 137.696 103.568 137.976C103.53 138.209 103.841 138.357 104.237 138.279C104.641 138.155 104.998 138.023 105.015 137.93C105.03 137.836 104.719 137.688 104.346 137.626ZM102.557 75.3725C102.515 74.5757 101.258 74.9673 100.431 76.0356C99.5134 77.221 98.2558 77.0335 97.7282 75.6328C97.2143 74.27 96.4172 74.5156 96.4942 76.0124C96.5703 77.4855 95.4064 78.2144 94.2948 77.3908C92.9443 76.3875 92.5229 77.431 92.7788 81.1457C92.9158 83.1415 92.8776 85.1831 92.6926 85.6822C92.5084 86.1803 92.5388 87.3424 92.7623 88.2658C93.1076 89.6886 92.9828 90.0821 91.952 90.8332C90.3218 92.0212 86.6611 92.2276 86.6029 91.1349C86.5801 90.6958 86.2829 90.4454 85.9403 90.579C85.5984 90.7127 85.3315 91.1447 85.3487 91.5376C85.3785 92.2422 84.609 92.3441 80.8133 92.1417L79.286 92.0601L79.6811 96.3389C79.8985 98.6899 80.2986 100.826 80.5736 101.088C80.8534 101.35 83.5771 101.386 86.7571 101.169C92.3234 100.789 92.4582 100.805 93.4602 102.029C94.6988 103.542 95.4884 108.915 94.6391 110.048C94.213 110.617 94.2309 111.097 94.7206 112.037C95.0763 112.718 95.4043 113.947 95.4466 114.767C95.5033 115.864 95.7627 116.244 96.4341 116.21C96.9357 116.184 97.6351 116.42 97.9867 116.736C98.4144 117.12 98.6161 117.126 98.5971 116.758C98.5477 115.794 100.057 115.503 101.827 116.134C104.325 117.024 104.715 116.47 104.411 112.472C104.128 108.741 104.512 102.793 105.105 101.727C105.366 101.261 106.691 101.08 109.829 101.082C113.31 101.084 114.421 101.282 115.34 102.057C116.031 102.639 116.515 102.812 116.853 102.594L117.128 102.355C117.487 102.104 118.066 102.119 118.941 102.4C119.766 102.664 120.584 102.668 120.82 102.408C121.049 102.152 121.014 98.9028 120.744 95.1876L120.252 88.4289L105.957 89.282L105.423 85.2039C105.131 82.9616 104.836 80.0269 104.765 78.6831C104.658 76.6667 104.455 76.203 103.607 76.0283C103.043 75.9118 102.57 75.6172 102.557 75.3725ZM132.926 107.517C132.817 107.307 132.63 107.565 132.591 108.086C132.506 108.599 132.622 108.761 132.825 108.411C133.019 108.108 133.043 107.68 132.926 107.517ZM135.151 104.819C135.02 103.31 134.389 103.636 134.357 105.262C134.35 106.172 134.482 106.529 134.77 106.242C135.011 105.946 135.167 105.301 135.151 104.819ZM136.731 103.115C136.816 102.601 135.502 102.43 135.089 102.889C134.903 103.145 135.206 103.34 135.727 103.379C136.248 103.418 136.7 103.301 136.731 103.115ZM139 76.004C139.459 75.2653 139.202 75.0782 138.658 75.7545C138.614 75.8017 138.575 75.8501 138.541 75.898L138.866 76.2196C138.911 76.1569 138.958 76.0846 139 76.004ZM100.097 68.7927C99.2103 68.6448 98.5252 69.2978 99.0692 69.7724C99.2792 69.9514 99.7312 69.8347 100.12 69.5159C100.68 69.034 100.703 68.894 100.097 68.7927ZM95.958 68.582C96.0515 68.0219 96.0045 68.0137 95.0243 68.4258C94.3556 68.6979 94.3867 68.799 95.0866 68.9158C95.5064 68.9859 95.9187 68.8152 95.958 68.582ZM69.0412 66.009C68.808 65.9703 68.5363 66.1649 68.4896 66.4447C68.4508 66.6779 68.6685 66.8096 68.9252 66.7086C69.2281 66.6153 69.454 66.4138 69.4777 66.2738C69.4931 66.1805 69.3212 66.0557 69.0412 66.009ZM136.683 67.1738C134.856 65.4777 134.117 65.5943 135.4 67.3914C135.75 67.8814 136.489 68.3402 136.971 68.3249C137.741 68.3095 137.679 68.1075 136.683 67.1738ZM110.273 61.8553C109.853 61.7853 109.535 61.9719 109.581 62.2674C109.628 62.563 109.877 62.7965 110.11 62.8355C110.343 62.8744 110.655 62.7343 110.795 62.4698C110.935 62.2054 110.693 61.9254 110.273 61.8553ZM104.439 60.8813C104.206 60.8426 103.942 60.991 103.903 61.2242C103.856 61.5042 104.035 61.8694 104.245 62.0483C104.501 62.2349 104.72 62.0798 104.782 61.7064C104.852 61.2864 104.719 60.9281 104.439 60.8813ZM96.9406 58.6706C96.8006 58.6472 96.5355 58.795 96.3487 59.0516C96.1699 59.2615 96.2243 59.5106 96.4574 59.5498C96.7374 59.5965 97.0102 59.4021 97.0492 59.1687C97.0959 58.889 97.0338 58.6865 96.9406 58.6706ZM98.2005 59.169C98.014 58.2744 97.7109 58.0798 97.6019 58.733C97.5551 59.0131 97.6872 59.3713 97.9439 59.5581C98.2003 59.7445 98.2782 59.5655 98.2005 59.169ZM73.8357 56.2548C73.7422 56.2397 73.501 56.5345 73.2523 56.8763C73.05 57.2262 73.0888 57.5685 73.3219 57.6076C73.6018 57.6543 73.8429 57.3593 73.9053 56.9861C73.9676 56.613 73.9289 56.2708 73.8357 56.2548ZM95.7737 57.0372C95.6337 57.0139 95.3696 57.1617 95.1828 57.4183C95.0039 57.6283 95.0582 57.8766 95.2915 57.9155C95.5715 57.9621 95.8435 57.7677 95.8824 57.5344C95.929 57.2546 95.867 57.0529 95.7737 57.0372ZM107.787 50.8857C107.694 50.8702 107.428 51.0183 107.241 51.275C107.063 51.4849 107.211 51.7494 107.631 51.8194C108.051 51.8895 108.276 51.6868 108.175 51.4301C108.082 51.1274 107.88 50.902 107.787 50.8857Z" fill="#F50000"/>
</g>
<defs>
<clipPath id="clip0_541_8936">
<rect width="200" height="200" fill="white"/>
</clipPath>
</defs>
</svg>
