<svg width="90" height="90" viewBox="0 0 90 90" fill="none" xmlns="http://www.w3.org/2000/svg">
<g clip-path="url(#clip0_668_10702)">
<path d="M54.2593 9.27675C54.1565 9.58634 53.9251 9.63794 53.4623 9.53474C52.9225 9.40575 52.6397 9.56054 51.8427 10.3861C51.3028 10.9537 50.5315 11.4955 50.1202 11.5987C49.6831 11.7019 48.5262 12.1663 47.4979 12.6306C46.1096 13.3014 45.2869 13.9206 44.0272 15.288C42.2276 17.2229 42.099 17.4809 41.1221 20.0866C39.6053 24.1887 38.8854 24.9369 37.9856 23.2341C37.3943 22.1248 37.3943 18.9515 37.9856 17.3003C38.397 16.1393 38.6026 14.0238 38.2684 14.0238C37.42 14.0238 33.4866 17.5325 31.6869 19.906C30.3501 21.712 30.2215 21.97 30.0673 23.6727C29.7331 27.0008 29.7331 27.2846 30.1701 29.3743C30.6843 31.7995 30.5043 33.2442 29.5788 34.1214C28.7304 34.9212 28.1391 34.56 26.6737 32.2896C25.3626 30.2257 25.3883 30.1999 24.4885 32.7798C24.2057 33.6312 24 34.8954 24 35.9273C24 38.4815 25.4911 41.5258 29.476 47.0468C29.7331 47.3822 29.9902 47.6144 30.0673 47.537C30.2215 47.3822 31.2499 43.7961 32.304 39.823C33.7694 34.2246 34.6178 32.8314 37.3172 31.5415C40.1452 30.1741 44.9784 30.3031 49.606 31.8511C54.0022 33.3474 57.3701 36.9335 57.8328 40.6744C58.0385 42.2481 57.5758 47.5886 57.1901 48.3368C56.8302 49.0075 57.2673 49.2139 58.1414 48.7495C58.527 48.5432 59.9153 47.3564 61.2007 46.0922C64.2858 43.0995 65.2113 41.2678 65.7769 37.0625C66.0083 35.2308 66.0597 33.8634 65.9311 33.3216C65.8026 32.8572 65.5969 32.0575 65.4941 31.5673C65.1342 30.1225 64.62 30.3289 63.6688 32.3154C62.3576 35.0502 60.7894 36.3659 60.7894 34.7148C60.7637 32.1349 60.1981 27.6974 59.6325 25.5045C58.9383 22.7955 58.6812 19.3126 59.0669 17.5841C59.2725 16.7327 59.2468 16.6553 58.8098 16.7585C57.4472 17.1197 55.1591 20.1124 55.1334 21.5572C55.1334 22.357 54.0794 24.4725 53.2567 25.2981C52.0226 26.6138 50.7886 26.4332 49.9916 24.8337C48.9633 22.8471 49.5803 20.7574 52.3826 16.8617C54.0536 14.5398 54.7992 12.8628 55.0049 11.0311C55.1334 9.81853 55.082 9.40575 54.7992 9.17355C54.4907 8.91556 54.3879 8.94136 54.2593 9.27675ZM56.4189 28.7294C56.4189 28.8584 56.316 28.9874 56.1875 28.9874C56.0332 28.9874 55.8533 28.8584 55.7761 28.7294C55.699 28.5746 55.8018 28.4714 56.0075 28.4714C56.2389 28.4714 56.4189 28.5746 56.4189 28.7294ZM55.3905 29.1163C55.5705 29.3485 55.5962 29.5033 55.4419 29.5033C55.3134 29.5033 55.1334 29.3227 55.0306 29.1163C54.9535 28.91 54.9277 28.7294 54.9792 28.7294C55.0306 28.7294 55.2105 28.91 55.3905 29.1163ZM61.6892 43.4349C61.612 43.5639 61.3807 43.6929 61.2264 43.6929C61.0465 43.6929 61.0722 43.5897 61.3035 43.4349C61.792 43.1253 61.8948 43.1253 61.6892 43.4349Z" fill="#F50000"/>
<path d="M38.1092 32.5187C36.6078 33.2189 34.8993 35.6308 34.4852 37.6796L34.304 38.5355L36.2195 38.4577C38.1092 38.3799 38.1351 38.3799 38.1351 39.0282C38.1351 39.6506 38.0833 39.6766 36.1419 39.7544L34.1486 39.8322L33.7345 41.1548C33.5274 41.881 33.3979 42.5553 33.4756 42.659C33.5533 42.7628 34.304 42.8146 35.1582 42.7628C36.5302 42.685 36.7373 42.7368 36.9961 43.2296C37.4621 44.0854 36.7373 44.4485 34.744 44.3448C32.8543 44.267 32.7249 44.3707 32.4143 46.2639L32.2331 47.3272L33.1132 47.3531C33.605 47.3791 34.3557 47.405 34.8217 47.4309C35.8571 47.4828 36.0383 47.6644 35.8312 48.4943C35.6759 49.1426 35.5983 49.1685 33.8121 49.1167C31.7412 49.0648 31.4565 49.2463 31.1459 50.8802C30.9388 52.0473 31.1459 52.1769 33.1909 52.151C34.6664 52.1251 34.7958 52.151 34.744 52.6438C34.7181 52.929 34.6664 53.2662 34.6664 53.3699C34.6405 53.4996 33.8121 53.5515 32.8026 53.4996C31.1459 53.4477 30.9129 53.4736 30.5764 53.9923C30.3693 54.3036 30.1363 55.4187 30.0586 56.4561C29.9292 58.2715 29.9551 58.453 30.7576 59.8535C31.7671 61.6689 33.0097 62.7582 35.5465 64.0549L37.4879 65.0663L37.3326 66.389C37.2032 67.5041 37.2809 67.945 37.8504 69.138L38.5234 70.5385L38.3422 74.9473C38.2128 77.3592 38.161 79.6155 38.2128 79.9267C38.3163 80.601 39.0152 80.8863 40.0766 80.6529L40.8531 80.4713V78.2669C40.8531 75.3363 41.1379 75.6475 41.1897 78.63C41.2414 80.7825 41.2673 80.9122 41.8368 80.99C42.1474 81.0419 42.9758 80.8863 43.6747 80.6529C44.3478 80.4454 45.1761 80.186 45.5126 80.1342C46.4187 79.9526 46.574 79.5377 46.4187 77.4111C46.341 76.3478 46.2374 74.7398 46.1598 73.8581C46.0562 71.9389 45.9268 71.7055 45.1761 71.7055C44.4772 71.7055 42.1992 70.4347 41.5262 69.6567C40.7755 68.8268 40.6719 66.389 41.3191 65.3516C41.8109 64.5476 43.0535 63.7177 43.3382 64.003C43.4159 64.0808 43.0793 64.5476 42.5875 65.0404C41.578 66.0518 41.345 66.9076 41.6556 68.2562C41.9662 69.7086 43.1311 70.72 44.7102 70.8756C45.4091 70.9275 46.2892 70.9275 46.6516 70.8237C47.713 70.5644 48.619 69.1121 48.9296 67.1929C49.1626 65.7147 49.3956 65.2478 49.7321 65.5331C49.9133 65.7147 52.0359 63.7955 52.3725 63.1472C52.6831 62.5247 53.9256 57.4157 54.4175 54.7185C54.4951 54.2776 55.0387 52.0991 55.5823 49.8688C57.9121 40.688 57.5497 38.5355 53.149 34.9565C51.57 33.6857 50.5604 33.193 48.4119 32.7002C47.1952 32.415 46.7552 32.389 46.6775 32.6224C46.6257 32.804 46.4187 33.582 46.2116 34.36C45.9009 35.6049 45.7974 35.7864 45.2279 35.7864C44.6843 35.7864 44.6066 35.6827 44.6066 34.8787C44.6066 34.386 44.7102 33.5301 44.8137 32.9855L45.0208 32L43.5194 32.0778L42.018 32.1556L41.6815 33.7635C41.345 35.2418 41.2673 35.3974 40.6719 35.3974C40.0507 35.3974 40.0248 35.3455 40.1542 34.4119C40.2578 33.8932 40.3872 33.1411 40.4907 32.7262C40.6461 32.0778 40.5943 32.0259 39.9212 32.0259C39.5071 32.0259 38.6787 32.2593 38.1092 32.5187ZM51.7253 36.5385C51.7253 36.8238 51.2335 36.9275 51.0781 36.6941C51.0005 36.5644 51.104 36.4348 51.3111 36.4348C51.5441 36.4348 51.7253 36.4866 51.7253 36.5385ZM45.2538 36.9535C45.2538 37.0831 45.202 37.2128 45.1502 37.2128C45.0726 37.2128 44.9431 37.0831 44.8655 36.9535C44.7878 36.7979 44.8396 36.6941 44.969 36.6941C45.1243 36.6941 45.2538 36.7979 45.2538 36.9535ZM45.0726 39.6766C45.875 39.884 47.6612 40.5843 49.0073 41.2326C50.9228 42.1403 51.4664 42.5034 51.4664 42.9184C51.4664 43.7742 50.7157 43.852 49.292 43.0999C47.3505 42.0885 44.529 41.103 43.5453 41.103C42.5099 41.103 42.3286 40.8436 42.6652 39.9618C42.9499 39.1838 43.1052 39.1579 45.0726 39.6766ZM46.4187 44.4744C48.2048 45.0969 50.4828 46.2898 50.6122 46.7048C50.664 46.8604 50.5087 47.2494 50.2498 47.5606L49.7838 48.1052L48.619 47.3272C47.3247 46.4454 44.6843 45.5637 42.9499 45.4081C41.7592 45.3043 41.2414 44.8375 41.5521 44.0854C41.6815 43.6964 41.9404 43.6445 43.2864 43.8001C44.1666 43.8779 45.5644 44.1892 46.4187 44.4744ZM45.435 49.5576C48.619 50.569 49.3956 51.0618 49.3179 52.0213C49.292 52.4363 49.2402 52.7734 49.2143 52.7734C49.1626 52.7734 47.9977 52.3066 46.6257 51.762C45.2279 51.1914 43.2864 50.5949 42.2769 50.4393C41.2932 50.2578 40.3872 50.0503 40.2836 49.9466C40.1801 49.8688 40.1542 49.5057 40.2578 49.1685C40.4131 48.598 40.5166 48.5721 41.785 48.7017C42.5357 48.7795 44.1924 49.1685 45.435 49.5576ZM38.3422 53.1624C38.4457 53.3699 38.394 53.6033 38.2904 53.6811C38.161 53.733 38.0057 53.5774 37.928 53.2921C37.7727 52.6956 38.1351 52.5919 38.3422 53.1624ZM41.785 53.1884C45.3573 53.9405 48.619 55.3409 48.619 56.1449C48.619 56.9748 47.8165 57.2082 46.9105 56.6376C46.1598 56.1708 42.3545 55.0816 40.2578 54.7185C39.7142 54.6407 39.2223 54.4073 39.1447 54.1998C39.0152 53.8886 39.4294 52.7734 39.6624 52.7734C39.7142 52.7734 40.6719 52.955 41.785 53.1884ZM51.8547 53.8108C52.1912 53.9664 52.243 54.0442 51.9842 54.0442C51.7771 54.0442 51.4147 53.9405 51.2076 53.8108C50.7416 53.4996 51.1558 53.4996 51.8547 53.8108ZM39.3 62.4729C39.3 62.5247 39.0929 62.7322 38.8599 62.9138C38.4457 63.2509 38.4198 63.225 38.7564 62.81C39.0929 62.3951 39.3 62.2654 39.3 62.4729ZM45.5126 67.2967C45.5126 67.8672 44.9431 68.36 44.5807 68.1266C44.063 67.7894 43.9595 67.0633 44.3995 66.8039C44.969 66.4927 45.5126 66.7261 45.5126 67.2967ZM42.6652 74.662C42.6652 74.7139 42.484 74.8436 42.251 74.9214C42.0439 74.9992 41.9404 74.9732 42.018 74.8176C42.1733 74.5583 42.6652 74.4545 42.6652 74.662ZM42.7946 75.3363C42.8723 75.466 42.8205 75.5957 42.6911 75.5957C42.5357 75.5957 42.4063 75.466 42.4063 75.3363C42.4063 75.1807 42.4581 75.077 42.5099 75.077C42.5875 75.077 42.7169 75.1807 42.7946 75.3363Z" fill="#F50000"/>
<path d="M40.5126 83.0543C40.6265 82.9843 40.7196 83.0693 40.7196 83.2431C40.7196 83.5995 40.5973 83.6519 40.4227 83.3705C40.3582 83.2666 40.3987 83.1244 40.5126 83.0543Z" fill="#F50000"/>
<path d="M42.4141 82.7098C42.4791 82.5481 42.5274 82.5962 42.5372 82.8325C42.5459 83.0463 42.4978 83.166 42.4302 83.0987C42.3625 83.0313 42.3552 82.8563 42.4141 82.7098Z" fill="#F50000"/>
<path d="M40.5158 80.7194C40.6279 80.7194 40.7196 80.8564 40.7196 81.0237C40.7196 81.1911 40.6279 81.328 40.5158 81.328C40.4038 81.328 40.3121 81.1911 40.3121 81.0237C40.3121 80.8564 40.4038 80.7194 40.5158 80.7194Z" fill="#F50000"/>
<path d="M32.8583 79.4832C33.0577 79.7027 33.1608 79.9794 33.0873 80.0981C32.8941 80.4093 32.4573 80.363 32.154 79.9993C31.9386 79.7409 31.9457 79.6311 32.1937 79.3845C32.4602 79.1191 32.5378 79.1307 32.8583 79.4832Z" fill="#F50000"/>
<path d="M30.3148 77.3811C30.4191 77.3168 30.5619 77.3572 30.6324 77.4705C30.7027 77.5839 30.6174 77.6766 30.4427 77.6766C30.0848 77.6766 30.0322 77.5549 30.3148 77.3811Z" fill="#F50000"/>
<path d="M33.0724 76.1252C33.3134 76.3005 33.4023 76.5277 33.3169 76.7494C33.1454 77.1945 32.4956 77.0799 32.4005 76.5877C32.2937 76.0362 32.6313 75.8039 33.0724 76.1252Z" fill="#F50000"/>
<path d="M37.7533 72.8082C37.9279 72.8082 38.071 72.8995 38.071 73.011C38.071 73.1226 37.9848 73.2139 37.8793 73.2139C37.7737 73.2139 37.6309 73.1226 37.5616 73.011C37.4924 72.8995 37.5787 72.8082 37.7533 72.8082Z" fill="#F50000"/>
<path d="M30.3409 72.1996C30.4464 72.1996 30.5326 72.2909 30.5326 72.4025C30.5326 72.5141 30.3896 72.6053 30.215 72.6053C30.0404 72.6053 29.954 72.5141 30.0233 72.4025C30.0925 72.2909 30.2353 72.1996 30.3409 72.1996Z" fill="#F50000"/>
<path d="M32.9895 70.5768C33.2201 70.5768 33.3524 70.6681 33.2831 70.7797C33.2138 70.8912 33.0252 70.9825 32.8636 70.9825C32.702 70.9825 32.57 70.8912 32.57 70.7797C32.57 70.6681 32.7589 70.5768 32.9895 70.5768Z" fill="#F50000"/>
<path d="M33.385 68.7512C33.497 68.7512 33.5887 68.8881 33.5887 69.0554C33.5887 69.2228 33.497 69.3597 33.385 69.3597C33.2729 69.3597 33.1812 69.2228 33.1812 69.0554C33.1812 68.8881 33.2729 68.7512 33.385 68.7512Z" fill="#F50000"/>
<path d="M49.6809 68.4489C49.9523 68.282 50.3355 68.5223 50.1847 68.7651C50.1203 68.869 49.9867 68.954 49.8879 68.954C49.6026 68.954 49.4529 68.5891 49.6809 68.4489Z" fill="#F50000"/>
<path d="M39.0864 68.2461C39.3578 68.0791 39.741 68.3195 39.5903 68.5623C39.5259 68.6662 39.3922 68.7512 39.2934 68.7512C39.0082 68.7512 38.8584 68.3862 39.0864 68.2461Z" fill="#F50000"/>
<path d="M32.616 67.093C32.7281 67.2046 32.7532 67.403 32.6719 67.534C32.5733 67.6929 32.4561 67.7046 32.3202 67.5693C32.2082 67.4578 32.1831 67.2594 32.2644 67.1283C32.363 66.9695 32.4801 66.9577 32.616 67.093Z" fill="#F50000"/>
<path d="M65.029 16.3358C64.9654 16.4534 64.8423 16.4263 64.7554 16.2758C64.5771 15.9671 64.6568 15.8607 64.9487 16.017C65.0566 16.0747 65.0926 16.2181 65.029 16.3358Z" fill="#F50000"/>
<path d="M63.5545 17.5849C63.5791 17.7574 63.5132 17.7399 63.3866 17.5401C63.2721 17.3593 63.2539 17.2316 63.3461 17.2561C63.4384 17.2806 63.5323 17.4286 63.5545 17.5849Z" fill="#F50000"/>
<path d="M66.1936 18.3595C66.0966 18.4155 65.9487 18.3428 65.8651 18.1978C65.7814 18.0529 65.7923 17.8885 65.8894 17.8324C65.9864 17.7764 66.1343 17.8492 66.2179 17.9941C66.3016 18.139 66.2907 18.3034 66.1936 18.3595Z" fill="#F50000"/>
<path d="M73.4434 15.6012C73.1609 15.5109 72.9333 15.3228 72.9376 15.1833C72.9493 14.8172 73.3507 14.6389 73.7953 14.8022C74.111 14.9183 74.1597 15.0169 74.0683 15.3545C73.9702 15.7175 73.8972 15.7463 73.4434 15.6012Z" fill="#F50000"/>
<path d="M76.6972 16.15C76.639 16.2579 76.4951 16.2943 76.3774 16.2314C76.2598 16.1683 76.2874 16.0453 76.4386 15.958C76.7486 15.7791 76.855 15.8582 76.6972 16.15Z" fill="#F50000"/>
<path d="M74.9369 18.6164C74.6406 18.5852 74.45 18.4328 74.4131 18.1981C74.3391 17.7269 74.9591 17.5013 75.2876 17.8799C75.6558 18.3042 75.4796 18.6742 74.9369 18.6164Z" fill="#F50000"/>
<path d="M72.5417 23.8295C72.3904 23.9168 72.2209 23.9093 72.1652 23.8127C72.1094 23.7161 72.1384 23.5939 72.2298 23.5411C72.3212 23.4884 72.4905 23.496 72.6063 23.558C72.722 23.62 72.6929 23.7422 72.5417 23.8295Z" fill="#F50000"/>
<path d="M79.2653 20.6503C79.1739 20.7031 79.0536 20.6671 78.9979 20.5705C78.9421 20.4739 79.0203 20.3233 79.1715 20.236C79.3227 20.1487 79.4432 20.1846 79.439 20.3158C79.4348 20.4471 79.3567 20.5976 79.2653 20.6503Z" fill="#F50000"/>
<path d="M77.7829 23.38C77.5832 23.4954 77.4231 23.4824 77.4273 23.3512C77.4315 23.2199 77.5492 23.0465 77.6891 22.9657C77.8291 22.885 77.989 22.898 78.0448 22.9946C78.1006 23.0912 77.9827 23.2647 77.7829 23.38Z" fill="#F50000"/>
<path d="M78.3533 25.1588C78.2563 25.2149 78.1084 25.1421 78.0247 24.9972C77.941 24.8523 77.952 24.6879 78.049 24.6318C78.1461 24.5758 78.2939 24.6485 78.3776 24.7935C78.4613 24.9384 78.4503 25.1028 78.3533 25.1588Z" fill="#F50000"/>
<path d="M64.3918 33.5686C64.2402 33.8488 63.7881 33.8323 63.7973 33.5466C63.8011 33.4245 63.8744 33.284 63.9599 33.2346C64.207 33.092 64.5191 33.3332 64.3918 33.5686Z" fill="#F50000"/>
<path d="M73.6683 28.447C73.5167 28.7273 73.0646 28.7107 73.0738 28.4251C73.0776 28.3029 73.1509 28.1625 73.2364 28.1131C73.4835 27.9705 73.7956 28.2116 73.6683 28.447Z" fill="#F50000"/>
<path d="M79.8483 26.2104C79.6954 26.1698 79.5745 26.0105 79.5794 25.8564C79.5854 25.6695 79.681 25.6007 79.8663 25.65C80.0191 25.6906 80.14 25.8498 80.1352 26.004C80.1292 26.1908 80.0336 26.2596 79.8483 26.2104Z" fill="#F50000"/>
<path d="M71.1641 21.1424C71.0577 21.0093 70.8835 20.9526 70.8697 21.0464C70.8653 21.0751 70.7954 21.106 70.7143 21.115C70.5923 21.1285 70.5589 21.1816 70.5235 21.4189C70.5 21.5769 70.4287 21.9211 70.3648 22.1834L70.2483 22.6605L68.2309 22.4403L68.0935 23.2344C68.0179 23.6711 67.9804 24.0546 68.0103 24.0865C68.0411 24.1192 68.1571 24.1254 68.2766 24.1011C68.4035 24.0753 68.4856 24.0784 68.5339 24.1111L68.5706 24.1417C68.6163 24.1702 68.6866 24.1538 68.7904 24.0908C68.9284 24.007 69.0878 23.9929 69.5812 24.0218C70.0259 24.0478 70.2117 24.0802 70.244 24.1374C70.3174 24.2683 70.3122 24.9739 70.2346 25.4122C70.1514 25.8818 70.2012 25.9505 70.5641 25.8661C70.8212 25.8065 71.0323 25.8534 71.0156 25.9668C71.0092 26.0102 71.0378 26.0111 71.1022 25.9693C71.1552 25.935 71.2567 25.913 71.3276 25.9202C71.4224 25.9299 71.463 25.8871 71.4821 25.758C71.4963 25.6616 71.555 25.5192 71.6122 25.4417C71.6911 25.3348 71.6985 25.2783 71.6438 25.2076C71.5348 25.0667 71.7006 24.4388 71.8913 24.2705C72.0456 24.1343 72.0648 24.1335 72.8499 24.2249C73.2983 24.2771 73.6846 24.2956 73.7269 24.2669C73.7684 24.2384 73.8466 23.9895 73.901 23.7137L74 23.2116L73.7828 23.2084C73.2428 23.2006 73.1347 23.1822 73.146 23.0992C73.1524 23.053 73.1189 22.9997 73.0718 22.9811C73.0246 22.9625 72.98 22.9895 72.9723 23.0412C72.9531 23.1698 72.4365 23.1147 72.2174 22.9608C72.0788 22.8635 72.065 22.8161 72.1282 22.6509C72.1692 22.5437 72.1852 22.4068 72.164 22.3464C72.1428 22.2859 72.1579 22.0445 72.1973 21.8099C72.2709 21.3733 72.2217 21.2466 72.0202 21.3537C71.8544 21.4418 71.6968 21.346 71.7223 21.1727C71.7483 20.9965 71.6377 20.9608 71.5512 21.1175C71.4624 21.2785 71.2823 21.2901 71.1641 21.1424Z" fill="#F50000"/>
</g>
<defs>
<clipPath id="clip0_668_10702">
<rect width="90" height="90" fill="white"/>
</clipPath>
</defs>
</svg>
