<svg width="309" height="81" viewBox="0 0 309 81" fill="none" xmlns="http://www.w3.org/2000/svg">
<g opacity="0.1">
<path d="M0.0234375 37.4072C0.0234375 34.7131 2.20741 32.5291 4.90149 32.5291C7.59556 32.5291 9.77954 34.7131 9.77954 37.4072V43.2608C9.77954 45.9549 7.59556 48.1389 4.90149 48.1389C2.20741 48.1389 0.0234375 45.9549 0.0234375 43.2608V37.4072Z" fill="#D9D9D9"/>
<path d="M17.5844 19.8463C17.5844 17.1522 19.7684 14.9682 22.4624 14.9682C25.1565 14.9682 27.3405 17.1522 27.3405 19.8463V60.8219C27.3405 63.5159 25.1565 65.6999 22.4624 65.6999C19.7684 65.6999 17.5844 63.5159 17.5844 60.8219V19.8463Z" fill="#D9D9D9"/>
<path d="M35.1453 5.21204C35.1453 2.51797 37.3293 0.333984 40.0234 0.333984C42.7175 0.333984 44.9014 2.51796 44.9014 5.21203V75.4559C44.9014 78.15 42.7175 80.334 40.0234 80.334C37.3293 80.334 35.1453 78.15 35.1453 75.4559V5.21204Z" fill="#D9D9D9"/>
<path d="M52.7063 29.6024C52.7063 26.9084 54.8903 24.7244 57.5843 24.7244C60.2784 24.7244 62.4624 26.9083 62.4624 29.6024V51.0658C62.4624 53.7599 60.2784 55.9439 57.5843 55.9439C54.8903 55.9439 52.7063 53.7599 52.7063 51.0658V29.6024Z" fill="#D9D9D9"/>
<path d="M70.2673 19.8463C70.2673 17.1522 72.4512 14.9682 75.1453 14.9682C77.8394 14.9682 80.0234 17.1522 80.0234 19.8463V60.8219C80.0234 63.5159 77.8394 65.6999 75.1453 65.6999C72.4512 65.6999 70.2673 63.5159 70.2673 60.8219V19.8463Z" fill="#D9D9D9"/>
<path d="M87.8282 39.3586C87.8282 36.6645 90.0122 34.4805 92.7063 34.4805C95.4003 34.4805 97.5843 36.6645 97.5843 39.3586V41.3098C97.5843 44.0039 95.4003 46.1878 92.7063 46.1878C90.0122 46.1878 87.8282 44.0039 87.8282 41.3098V39.3586Z" fill="#D9D9D9"/>
<path d="M105.389 33.5047C105.389 30.8106 107.573 28.6267 110.267 28.6267C112.961 28.6267 115.145 30.8106 115.145 33.5047V47.1632C115.145 49.8573 112.961 52.0413 110.267 52.0413C107.573 52.0413 105.389 49.8573 105.389 47.1633V33.5047Z" fill="#D9D9D9"/>
<path d="M122.95 5.21204C122.95 2.51797 125.134 0.333984 127.828 0.333984C130.522 0.333984 132.706 2.51796 132.706 5.21203V75.4559C132.706 78.15 130.522 80.334 127.828 80.334C125.134 80.334 122.95 78.15 122.95 75.4559V5.21204Z" fill="#D9D9D9"/>
<path d="M140.511 21.7974C140.511 19.1033 142.695 16.9193 145.389 16.9193C148.083 16.9193 150.267 19.1033 150.267 21.7974V58.8706C150.267 61.5646 148.083 63.7486 145.389 63.7486C142.695 63.7486 140.511 61.5646 140.511 58.8706V21.7974Z" fill="#D9D9D9"/>
<path d="M158.072 31.5535C158.072 28.8594 160.256 26.6754 162.95 26.6754C165.644 26.6754 167.828 28.8594 167.828 31.5535V49.1145C167.828 51.8085 165.644 53.9925 162.95 53.9925C160.256 53.9925 158.072 51.8085 158.072 49.1145V31.5535Z" fill="#D9D9D9"/>
<path d="M175.633 13.9925C175.633 11.2985 177.817 9.11447 180.511 9.11447C183.205 9.11447 185.389 11.2984 185.389 13.9925V66.6754C185.389 69.3695 183.205 71.5535 180.511 71.5535C177.817 71.5535 175.633 69.3695 175.633 66.6754V13.9925Z" fill="#D9D9D9"/>
<path d="M193.194 5.21204C193.194 2.51797 195.378 0.333984 198.072 0.333984C200.766 0.333984 202.95 2.51796 202.95 5.21203V75.4559C202.95 78.15 200.766 80.334 198.072 80.334C195.378 80.334 193.194 78.15 193.194 75.4559V5.21204Z" fill="#D9D9D9"/>
<path d="M210.755 39.3584C210.755 36.6643 212.939 34.4803 215.633 34.4803C218.327 34.4803 220.511 36.6643 220.511 39.3584V41.3096C220.511 44.0037 218.327 46.1876 215.633 46.1876C212.939 46.1876 210.755 44.0037 210.755 41.3096V39.3584Z" fill="#D9D9D9"/>
<path d="M228.316 23.7486C228.316 21.0545 230.5 18.8706 233.194 18.8706C235.888 18.8706 238.072 21.0545 238.072 23.7486V56.9194C238.072 59.6134 235.888 61.7974 233.194 61.7974C230.5 61.7974 228.316 59.6134 228.316 56.9193V23.7486Z" fill="#D9D9D9"/>
<path d="M245.877 5.21204C245.877 2.51797 248.061 0.333984 250.755 0.333984C253.449 0.333984 255.633 2.51796 255.633 5.21203V75.4559C255.633 78.15 253.449 80.334 250.755 80.334C248.061 80.334 245.877 78.15 245.877 75.4559V5.21204Z" fill="#D9D9D9"/>
<path d="M263.438 17.895C263.438 15.2009 265.622 13.0169 268.316 13.0169C271.01 13.0169 273.194 15.2009 273.194 17.895V62.773C273.194 65.4671 271.01 67.6511 268.316 67.6511C265.622 67.6511 263.438 65.4671 263.438 62.773V17.895Z" fill="#D9D9D9"/>
<path d="M280.999 29.6023C280.999 26.9082 283.183 24.7242 285.877 24.7242C288.571 24.7242 290.755 26.9082 290.755 29.6023V51.0657C290.755 53.7598 288.571 55.9437 285.877 55.9437C283.183 55.9437 280.999 53.7598 280.999 51.0657V29.6023Z" fill="#D9D9D9"/>
<path d="M298.56 37.4072C298.56 34.7131 300.744 32.5291 303.438 32.5291C306.132 32.5291 308.316 34.7131 308.316 37.4072V43.2608C308.316 45.9549 306.132 48.1389 303.438 48.1389C300.744 48.1389 298.56 45.9549 298.56 43.2608V37.4072Z" fill="#D9D9D9"/>
</g>
</svg>
