<svg width="74" height="64" viewBox="0 0 74 64" fill="none" xmlns="http://www.w3.org/2000/svg">
<path d="M41.4388 64V33.1511C41.4388 24.7098 44.2782 17.6499 49.9568 11.9712C55.789 6.13909 63.693 2.14868 73.6691 0V20.4892C69.8321 21.717 67.2998 23.2518 66.0719 25.0935C64.8441 26.7818 64.1535 28.9305 64 31.5396H73.6691V64H41.4388ZM0 64V33.1511C0 24.7098 2.83933 17.6499 8.51799 11.9712C14.3501 6.13909 22.2542 2.14868 32.2302 0V20.4892C28.5468 21.717 26.0144 23.2518 24.6331 25.0935C23.4053 26.7818 22.7146 28.9305 22.5611 31.5396H32.2302V64H0Z" fill="white"/>
</svg>
