<svg width="16" height="16" viewBox="0 0 16 16" fill="none" xmlns="http://www.w3.org/2000/svg">
<g clip-path="url(#clip0_241_22772)">
<path d="M11.7417 10.3275C12.529 9.25236 12.9999 7.93169 12.9999 6.49999C12.9999 2.91602 10.0839 0 6.49996 0C2.91599 0 0 2.91602 0 6.49999C0 10.084 2.91602 13 6.49999 13C7.93169 13 9.25248 12.529 10.3277 11.7416L14.586 15.9999L16 14.5859C16 14.5858 11.7417 10.3275 11.7417 10.3275ZM6.49999 11C4.01854 11 2.00001 8.98143 2.00001 6.49999C2.00001 4.01854 4.01854 2.00001 6.49999 2.00001C8.98143 2.00001 11 4.01854 11 6.49999C11 8.98143 8.9814 11 6.49999 11Z" fill="#F50000"/>
</g>
<defs>
<clipPath id="clip0_241_22772">
<rect width="16" height="16" fill="white"/>
</clipPath>
</defs>
</svg>
