<svg width="48" height="48" viewBox="0 0 48 48" fill="none" xmlns="http://www.w3.org/2000/svg">
<path d="M13.5076 25.4557C13.827 25.0299 14.3495 24.8483 14.391 25.1483C14.4041 25.2405 14.6139 25.3391 14.8571 25.3681C15.223 25.4113 15.3233 25.581 15.4294 26.3403C15.5 26.8462 15.7138 27.9474 15.9056 28.787L16.2552 30.3137L22.3072 29.609L22.7194 32.1501C22.9462 33.5476 23.0589 34.7748 22.9691 34.8768C22.8768 34.9814 22.5287 35.0014 22.1702 34.9235C21.7896 34.841 21.5432 34.8509 21.3982 34.9554L21.2881 35.0533C21.1511 35.1447 20.9402 35.0922 20.6287 34.8905C20.2147 34.6225 19.7365 34.5772 18.2563 34.6696C16.9223 34.7529 16.3648 34.8566 16.268 35.0396C16.0479 35.4586 16.0633 37.7165 16.2961 39.1189C16.5457 40.6217 16.3964 40.8414 15.3077 40.5716C14.5363 40.3808 13.9032 40.531 13.9532 40.8938C13.9724 41.0326 13.8866 41.0354 13.6933 40.9018C13.5343 40.792 13.2298 40.7215 13.0173 40.7447C12.7328 40.7756 12.6109 40.6388 12.5538 40.2255C12.5111 39.9171 12.3351 39.4614 12.1633 39.2134C11.9268 38.8715 11.9045 38.6906 12.0686 38.4643C12.3956 38.0134 11.8981 36.004 11.326 35.4654C10.8631 35.0298 10.8055 35.0272 8.45042 35.3197C7.105 35.4868 5.94626 35.5458 5.8194 35.4541C5.69465 35.3629 5.46021 34.5664 5.29703 33.6837L5 32.0773L5.65168 32.067C7.27174 32.0419 7.59579 31.983 7.56189 31.7175C7.54274 31.5694 7.64329 31.3992 7.78467 31.3395C7.92633 31.2799 8.06011 31.3665 8.08298 31.5319C8.14058 31.9433 9.6905 31.7672 10.3478 31.2746C10.7635 30.9632 10.805 30.8114 10.6154 30.283C10.4925 29.94 10.4445 29.5016 10.5079 29.3084C10.5715 29.115 10.5263 28.3422 10.408 27.5916C10.1874 26.1946 10.335 25.789 10.9393 26.132C11.4368 26.4137 11.9096 26.1072 11.833 25.5525C11.7552 24.9888 12.0869 24.8746 12.3464 25.376C12.6129 25.8913 13.1531 25.9284 13.5076 25.4557Z" fill="#F50000"/>
<path d="M35.3282 29.3133C35.1153 29.0205 34.767 28.8957 34.7393 29.102C34.7306 29.1653 34.5907 29.2331 34.4286 29.253C34.1847 29.2828 34.1178 29.3995 34.0471 29.9215C34 30.2693 33.8575 31.0263 33.7296 31.6036L33.4966 32.6532L29.4619 32.1687L29.187 33.9157C29.0359 34.8765 28.9607 35.7202 29.0206 35.7903C29.0822 35.8622 29.3142 35.8759 29.5532 35.8224C29.8069 35.7657 29.9712 35.7725 30.0679 35.8443L30.1413 35.9117C30.2326 35.9745 30.3732 35.9384 30.5809 35.7997C30.8569 35.6155 31.1757 35.5843 32.1625 35.6479C33.0518 35.7051 33.4235 35.7764 33.488 35.9023C33.6348 36.1903 33.6245 37.7426 33.4692 38.7067C33.3029 39.74 33.4024 39.891 34.1282 39.7055C34.6424 39.5743 35.0646 39.6776 35.0312 39.927C35.0184 40.0224 35.0756 40.0243 35.2045 39.9325C35.3105 39.857 35.5135 39.8085 35.6551 39.8245C35.8448 39.8457 35.926 39.7516 35.9641 39.4676C35.9926 39.2555 36.11 38.9422 36.2245 38.7717C36.3821 38.5367 36.397 38.4123 36.2876 38.2567C36.0696 37.9467 36.4013 36.5653 36.7827 36.195C37.0912 35.8955 37.1296 35.8937 38.6997 36.0948C39.5967 36.2097 40.3692 36.2503 40.4537 36.1872C40.5369 36.1245 40.6932 35.5769 40.802 34.97L41 33.8656L40.5655 33.8586C39.4855 33.8413 39.2695 33.8008 39.2921 33.6183C39.3048 33.5165 39.2378 33.3994 39.1436 33.3584C39.0491 33.3174 38.9599 33.377 38.9447 33.4907C38.9063 33.7735 37.873 33.6524 37.4348 33.3138C37.1577 33.0997 37.13 32.9954 37.2564 32.632C37.3383 32.3962 37.3703 32.0949 37.3281 31.962C37.2856 31.8291 37.3158 31.2978 37.3947 30.7817C37.5417 29.8213 37.4433 29.5424 37.0404 29.7782C36.7088 29.9719 36.3936 29.7612 36.4447 29.3798C36.4966 28.9923 36.2754 28.9138 36.1024 29.2585C35.9248 29.6128 35.5646 29.6383 35.3282 29.3133Z" fill="#F50000"/>
<path d="M29.6669 22.6519C29.2499 23.0183 28.7124 23.0781 28.758 22.7535C28.7717 22.6537 28.604 22.498 28.3857 22.407C28.0571 22.2704 28.0113 22.0676 28.1257 21.2457C28.202 20.6982 28.312 19.4913 28.369 18.5639L28.4721 16.8773L22.6388 16.1055L22.9682 13.3407C23.1494 11.8202 23.3889 10.5065 23.5011 10.422C23.6164 10.3355 23.9462 10.4015 24.2581 10.5724C24.5894 10.7538 24.8216 10.805 24.986 10.7317L25.116 10.6566C25.2692 10.595 25.4508 10.7026 25.6843 10.9916C25.9945 11.3757 26.4271 11.5424 27.8314 11.8149C29.0969 12.0606 29.6451 12.091 29.7867 11.9234C30.1092 11.5395 30.7287 9.17028 30.9055 7.64312C31.0949 6.00655 31.2956 5.81364 32.2336 6.36791C32.8983 6.76034 33.5301 6.76092 33.5853 6.36836C33.6064 6.21817 33.687 6.23669 33.8296 6.42486C33.9468 6.57961 34.2106 6.72943 34.415 6.75811C34.6885 6.79669 34.7636 6.97046 34.7008 7.4176C34.654 7.75134 34.69 8.27262 34.7803 8.57529C34.9046 8.99244 34.8745 9.18753 34.6583 9.3837C34.2272 9.77437 34.1264 12.0035 34.508 12.7104C34.8167 13.2823 34.8696 13.2994 37.1447 13.5805C38.4444 13.7412 39.54 13.9685 39.6323 14.0963C39.7229 14.2229 39.7176 15.1157 39.6218 16.0812L39.4475 17.8381L38.8378 17.6862C37.3222 17.3083 37.0039 17.2892 36.9609 17.5758C36.9372 17.7356 36.7958 17.8889 36.6474 17.9162C36.4988 17.9433 36.3985 17.8192 36.4236 17.6402C36.4855 17.1949 34.9928 16.9926 34.2425 17.3446C33.768 17.5671 33.6867 17.7157 33.715 18.3166C33.7331 18.7066 33.6548 19.1778 33.5415 19.3644C33.428 19.5511 33.2531 20.3719 33.1526 21.1878C32.9659 22.7062 32.7146 23.0943 32.2482 22.5842C31.864 22.1651 31.3377 22.3681 31.2534 22.9683C31.1676 23.5783 30.8267 23.6151 30.7258 23.0251C30.6223 22.4188 30.1296 22.2452 29.6669 22.6519Z" fill="#F50000"/>
<path d="M17.7062 17.2465C17.5923 17.3165 17.4992 17.2315 17.4992 17.0577C17.4992 16.7013 17.6214 16.6489 17.796 16.9303C17.8606 17.0341 17.8201 17.1763 17.7062 17.2465Z" fill="#F50000"/>
<path d="M15.8047 17.591C15.7397 17.7526 15.6914 17.7046 15.6816 17.4682C15.6728 17.2544 15.7209 17.1348 15.7886 17.2021C15.8562 17.2694 15.8635 17.4445 15.8047 17.591Z" fill="#F50000"/>
<path d="M17.7029 19.5814C17.5908 19.5814 17.4992 19.4444 17.4992 19.2771C17.4992 19.1097 17.5908 18.9728 17.7029 18.9728C17.815 18.9728 17.9066 19.1097 17.9066 19.2771C17.9066 19.4444 17.815 19.5814 17.7029 19.5814Z" fill="#F50000"/>
<path d="M25.3605 20.8175C25.161 20.598 25.0579 20.3214 25.1315 20.2027C25.3246 19.8915 25.7614 19.9378 26.0648 20.3015C26.2801 20.5599 26.273 20.6697 26.0251 20.9163C25.7586 21.1817 25.6809 21.1701 25.3605 20.8175Z" fill="#F50000"/>
<path d="M27.9039 22.9197C27.7996 22.984 27.6568 22.9436 27.5863 22.8302C27.516 22.7168 27.6014 22.6241 27.776 22.6241C28.134 22.6241 28.1865 22.7458 27.9039 22.9197Z" fill="#F50000"/>
<path d="M25.1463 24.1755C24.9053 24.0003 24.8165 23.7731 24.9018 23.5514C25.0734 23.1063 25.7231 23.2209 25.8183 23.713C25.925 24.2646 25.5874 24.4969 25.1463 24.1755Z" fill="#F50000"/>
<path d="M20.4654 27.4926C20.2908 27.4926 20.1478 27.4013 20.1478 27.2897C20.1478 27.1782 20.234 27.0869 20.3395 27.0869C20.445 27.0869 20.5879 27.1782 20.6571 27.2897C20.7264 27.4013 20.64 27.4926 20.4654 27.4926Z" fill="#F50000"/>
<path d="M27.8779 28.1011C27.7723 28.1011 27.6862 28.0099 27.6862 27.8983C27.6862 27.7867 27.8292 27.6954 28.0038 27.6954C28.1784 27.6954 28.2648 27.7867 28.1955 27.8983C28.1262 28.0099 27.9834 28.1011 27.8779 28.1011Z" fill="#F50000"/>
<path d="M25.2293 29.724C24.9986 29.724 24.8664 29.6327 24.9357 29.5211C25.0049 29.4095 25.1936 29.3183 25.3552 29.3183C25.5167 29.3183 25.6488 29.4095 25.6488 29.5211C25.6488 29.6327 25.4599 29.724 25.2293 29.724Z" fill="#F50000"/>
<path d="M24.8338 31.5496C24.7217 31.5496 24.6301 31.4127 24.6301 31.2453C24.6301 31.078 24.7217 30.9411 24.8338 30.9411C24.9459 30.9411 25.0375 31.078 25.0375 31.2453C25.0375 31.4127 24.9459 31.5496 24.8338 31.5496Z" fill="#F50000"/>
<path d="M8.53787 31.8519C8.26649 32.0188 7.88326 31.7784 8.03402 31.5356C8.09841 31.4318 8.23206 31.3468 8.33087 31.3468C8.61611 31.3468 8.76586 31.7117 8.53787 31.8519Z" fill="#F50000"/>
<path d="M19.1323 32.0547C18.861 32.2217 18.4777 31.9813 18.6285 31.7385C18.6929 31.6346 18.8265 31.5496 18.9253 31.5496C19.2106 31.5496 19.3603 31.9146 19.1323 32.0547Z" fill="#F50000"/>
<path d="M25.6027 33.2077C25.4907 33.0962 25.4656 32.8978 25.5469 32.7667C25.6455 32.6079 25.7626 32.5961 25.8985 32.7314C26.0106 32.843 26.0357 33.0414 25.9544 33.1724C25.8558 33.3313 25.7386 33.343 25.6027 33.2077Z" fill="#F50000"/>
</svg>
