<svg width="16" height="17" viewBox="0 0 16 17" fill="none" xmlns="http://www.w3.org/2000/svg">
<path fill-rule="evenodd" clip-rule="evenodd" d="M4.03987 3.24204C4.18984 3.39206 4.27409 3.59551 4.27409 3.80764C4.27409 4.01977 4.18984 4.22322 4.03987 4.37324C3.5198 4.89326 3.10725 5.51062 2.82579 6.19008C2.54433 6.86954 2.39946 7.59779 2.39946 8.33325C2.39946 9.06869 2.54433 9.79693 2.82579 10.4764C3.10725 11.1559 3.5198 11.7733 4.03987 12.2933C4.11628 12.367 4.17722 12.4553 4.21915 12.5529C4.26108 12.6505 4.28314 12.7555 4.28407 12.8617C4.28499 12.968 4.26475 13.0733 4.22452 13.1716C4.1843 13.2699 4.1249 13.3593 4.04978 13.4344C3.97467 13.5095 3.88535 13.5689 3.78703 13.6091C3.68872 13.6493 3.58337 13.6696 3.47715 13.6686C3.37092 13.6677 3.26595 13.6457 3.16834 13.6037C3.07074 13.5618 2.98246 13.5009 2.90867 13.4245C2.24008 12.7559 1.70972 11.9621 1.34788 11.0886C0.986045 10.215 0.799805 9.27877 0.799805 8.33325C0.799805 7.38772 0.986045 6.45145 1.34788 5.5779C1.70972 4.70435 2.24008 3.91063 2.90867 3.24204C3.05869 3.09207 3.26213 3.00781 3.47427 3.00781C3.6864 3.00781 3.88984 3.09207 4.03987 3.24204ZM11.9599 3.24204C12.1099 3.09207 12.3133 3.00781 12.5255 3.00781C12.7376 3.00781 12.9411 3.09207 13.0911 3.24204C13.7596 3.91063 14.29 4.70435 14.6519 5.5779C15.0137 6.45145 15.2 7.38772 15.2 8.33325C15.2 9.27877 15.0137 10.215 14.6519 11.0886C14.29 11.9621 13.7596 12.7559 13.0911 13.4245C13.0172 13.5009 12.929 13.5618 12.8314 13.6037C12.7338 13.6457 12.6288 13.6677 12.5226 13.6686C12.4164 13.6696 12.311 13.6493 12.2127 13.6091C12.1144 13.5689 12.0251 13.5095 11.95 13.4344C11.8748 13.3593 11.8154 13.2699 11.7752 13.1716C11.735 13.0733 11.7148 12.968 11.7156 12.8617C11.7166 12.7555 11.7387 12.6505 11.7806 12.5529C11.8225 12.4553 11.8835 12.367 11.9599 12.2933C12.48 11.7733 12.8924 11.1559 13.174 10.4764C13.4554 9.79693 13.6003 9.06869 13.6003 8.33325C13.6003 7.59779 13.4554 6.86954 13.174 6.19008C12.8924 5.51062 12.48 4.89326 11.9599 4.37324C11.8099 4.22322 11.7256 4.01977 11.7256 3.80764C11.7256 3.59551 11.8099 3.39206 11.9599 3.24204ZM6.30307 5.50444C6.45304 5.65447 6.53729 5.85791 6.53729 6.07004C6.53729 6.28217 6.45304 6.48562 6.30307 6.63564C6.08016 6.85851 5.90335 7.1231 5.78271 7.41431C5.66207 7.70552 5.59998 8.01764 5.59998 8.33285C5.59998 8.64805 5.66207 8.96013 5.78271 9.25141C5.90335 9.54261 6.08016 9.80717 6.30307 10.0301C6.37734 10.1044 6.43625 10.1926 6.47643 10.2897C6.5166 10.3868 6.53727 10.4909 6.53723 10.5959C6.53719 10.701 6.51646 10.805 6.47621 10.9021C6.43596 10.9992 6.377 11.0873 6.30267 11.1617C6.22834 11.2359 6.14011 11.2949 6.04301 11.335C5.94592 11.3752 5.84186 11.3958 5.73678 11.3958C5.63171 11.3957 5.52766 11.375 5.4306 11.3348C5.33353 11.2945 5.24534 11.2356 5.17107 11.1613C4.42118 10.4111 3.99992 9.39389 3.99992 8.33325C3.99992 7.27259 4.42118 6.25536 5.17107 5.50524C5.24536 5.43086 5.3336 5.37185 5.43072 5.3316C5.52784 5.29133 5.63193 5.27061 5.73707 5.27061C5.8422 5.27061 5.9463 5.29133 6.04342 5.3316C6.14054 5.37185 6.22876 5.43006 6.30307 5.50444ZM9.69668 5.50444C9.77101 5.43006 9.85916 5.37105 9.95628 5.3308C10.0534 5.29053 10.1576 5.26981 10.2627 5.26981C10.3678 5.26981 10.4719 5.29053 10.569 5.3308C10.6661 5.37105 10.7544 5.43006 10.8287 5.50444C11.2002 5.87589 11.4949 6.31689 11.696 6.80227C11.8971 7.28764 12.0006 7.80787 12.0006 8.33325C12.0006 8.85861 11.8971 9.37885 11.696 9.86421C11.4949 10.3496 11.2002 10.7906 10.8287 11.1621C10.6785 11.3121 10.4749 11.3965 10.2627 11.3965C10.0504 11.3965 9.84677 11.3121 9.69668 11.1621C9.54653 11.0119 9.4622 10.8084 9.4622 10.5961C9.4622 10.3837 9.54653 10.1801 9.69668 10.0301C10.1466 9.57997 10.3993 8.96965 10.3993 8.33325C10.3993 7.69685 10.1466 7.08651 9.69668 6.63645C9.62228 6.56214 9.56324 6.47392 9.52301 6.3768C9.48277 6.27968 9.46204 6.17557 9.46204 6.07045C9.46204 5.96531 9.48277 5.8612 9.52301 5.76409C9.56324 5.66697 9.62228 5.57874 9.69668 5.50444ZM7.99989 7.53325C8.21204 7.53325 8.41548 7.61753 8.56556 7.76756C8.71556 7.91759 8.79988 8.12107 8.79988 8.33325V8.34125C8.79988 8.55341 8.71556 8.75693 8.56556 8.90693C8.41548 9.05693 8.21204 9.14125 7.99989 9.14125C7.78769 9.14125 7.58421 9.05693 7.43418 8.90693C7.28416 8.75693 7.19987 8.55341 7.19987 8.34125V8.33325C7.19987 8.12107 7.28416 7.91759 7.43418 7.76756C7.58421 7.61753 7.78769 7.53325 7.99989 7.53325Z" fill="#F50000"/>
</svg>
